<svg xmlns="http://www.w3.org/2000/svg" width="384" height="40" viewBox="0 0 384 40"><path d="M15.694 15.072v.17c2.133.199 3.647.946 4.543 2.24.896 1.294 1.344 3.164 1.344 5.61 0 2.958-.704 4.978-2.112 6.059-1.408 1.081-3.861 1.621-7.359 1.621-4.807 0-8.505-.114-11.092-.341V.993C3.322.765 6.592.652 10.831.652c3.697 0 6.264.533 7.701 1.6 1.436 1.067 2.155 3.093 2.155 6.08 0 2.133-.399 3.748-1.195 4.843-.798 1.094-2.064 1.726-3.798 1.897zM5.198 13.536h5.973c2.048 0 3.462-.32 4.245-.96.782-.64 1.173-1.884 1.173-3.733 0-1.82-.427-3.036-1.28-3.648-.853-.611-2.417-.917-4.693-.917H5.198v9.258zm0 13.567l6.272.042c2.246 0 3.775-.32 4.586-.96.811-.64 1.216-1.913 1.216-3.818 0-2.133-.434-3.584-1.301-4.352-.868-.768-2.453-1.166-4.757-1.195H5.198v10.283zM45.601 9.611v20.82h-3.285l-.299-2.858c-3.044 2.276-6.001 3.413-8.874 3.413-3.783 0-5.674-1.92-5.674-5.76V9.611h4.138v14.42c-.028 1.28.185 2.169.64 2.667.455.498 1.237.747 2.347.747 1.621 0 3.925-.924 6.912-2.773V9.611h4.095zM53.664.737h1.962c.796 0 1.195.398 1.195 1.194V4.32c0 .825-.399 1.237-1.195 1.237h-1.962c-.796 0-1.194-.412-1.194-1.237V1.931c0-.796.398-1.194 1.194-1.194zm3.029 29.694h-4.096V9.611h4.096v20.82zM67.871.566v23.849c-.029.882.185 1.543.64 1.984.455.441 1.137.661 2.048.661h1.92l.469 3.2c-.825.37-2.148.555-3.968.555-1.622 0-2.901-.476-3.84-1.429-.938-.953-1.408-2.296-1.408-4.032V.566h4.139zM91.89 30.431l-.341-2.858c-2.674 2.247-5.404 3.371-8.191 3.371-2.56 0-4.416-.917-5.567-2.752-1.152-1.834-1.728-4.586-1.728-8.255 0-3.982.64-6.791 1.92-8.426 1.28-1.635 3.285-2.453 6.016-2.453 2.616 0 5.005.626 7.167 1.877a44.428 44.428 0 0 1-.171-4.096V.566h4.139v29.865H91.89zm-.896-5.675V13.664c-2.588-.683-4.58-1.024-5.973-1.024-1.764 0-2.987.491-3.669 1.472-.683.981-1.024 2.908-1.024 5.781 0 2.873.334 4.836 1.003 5.888.668 1.053 1.813 1.579 3.435 1.579 1.052 0 1.983-.185 2.794-.555.811-.37 1.955-1.053 3.434-2.049zM103.196.737h1.962c.796 0 1.195.398 1.195 1.194V4.32c0 .825-.399 1.237-1.195 1.237h-1.962c-.796 0-1.194-.412-1.194-1.237V1.931c-.001-.796.397-1.194 1.194-1.194zm3.029 29.694h-4.096V9.611h4.096v20.82zM116.72 9.611l.256 3.2c3.271-2.502 6.342-3.754 9.215-3.754 1.849 0 3.25.491 4.203 1.472.953.981 1.429 2.411 1.429 4.288v15.615h-4.139V16.01c0-1.308-.192-2.211-.576-2.709-.384-.498-1.074-.747-2.069-.747-1.081 0-2.162.242-3.242.725-1.082.484-2.56 1.28-4.437 2.389V30.43h-4.139V9.611h3.499zM158.146 11.829l-2.944.299c.483.967.725 2.176.725 3.626 0 2.361-.676 4.06-2.026 5.098-1.351 1.039-3.69 1.557-7.018 1.557-1.536 0-2.916-.113-4.139-.341-.455.598-.576 1.252-.362 1.963s.774 1.138 1.685 1.28l7.68 1.194c1.962.285 3.363.896 4.202 1.835.839.938 1.259 2.304 1.259 4.096 0 2.474-.726 4.181-2.176 5.12-1.451.938-4.082 1.408-7.893 1.408-3.84 0-6.5-.462-7.978-1.387-1.479-.924-2.219-2.596-2.219-5.013 0-1.167.256-2.091.768-2.773.512-.683 1.365-1.365 2.56-2.048-.996-.824-1.444-1.926-1.344-3.306.1-1.379.647-2.425 1.643-3.136-1.82-.939-2.73-2.773-2.73-5.504 0-2.446.668-4.181 2.005-5.205 1.336-1.024 3.697-1.536 7.082-1.536 2.076 0 3.726.185 4.949.555h6.485l-.214 2.218zm-8.532 17.706l-6.698-.896c-1.309 1.082-1.962 2.275-1.962 3.584 0 1.365.391 2.247 1.173 2.645.782.398 2.438.597 4.971.597 2.446 0 4.067-.207 4.863-.619.796-.413 1.195-1.287 1.195-2.624 0-.967-.213-1.6-.64-1.898-.428-.299-1.395-.561-2.902-.789zm-2.731-10.24c1.934 0 3.285-.263 4.053-.789.768-.526 1.152-1.443 1.152-2.752 0-1.337-.377-2.261-1.131-2.773s-2.112-.768-4.074-.768c-1.991 0-3.371.256-4.139.768-.768.512-1.152 1.437-1.152 2.773 0 1.28.391 2.19 1.173 2.73.783.541 2.156.811 4.118.811zM182.806 20.234v10.197h-4.267v-10.24L168.811.992h4.522l5.93 12.074c.228.484.654 1.621 1.28 3.413h.298c.598-1.763 1.024-2.886 1.28-3.37l5.93-12.117h4.437l-9.682 19.242zM194.965 11.573c1.508-1.678 4.067-2.517 7.68-2.517 3.611 0 6.172.839 7.68 2.517 1.507 1.679 2.261 4.508 2.261 8.49s-.754 6.798-2.261 8.447c-1.508 1.65-4.068 2.475-7.68 2.475s-6.172-.825-7.68-2.475c-1.508-1.649-2.261-4.465-2.261-8.447 0-3.981.753-6.811 2.261-8.49zm12.117 2.56c-.797-1.052-2.276-1.579-4.438-1.579s-3.641.526-4.438 1.579c-.796 1.052-1.194 3.029-1.194 5.93 0 2.873.398 4.835 1.194 5.888.797 1.052 2.275 1.578 4.438 1.578 2.161 0 3.641-.526 4.438-1.578.796-1.052 1.194-3.015 1.194-5.888 0-2.901-.398-4.877-1.194-5.93zM236.434 9.611v20.82h-3.285l-.299-2.858c-3.044 2.276-6.002 3.413-8.874 3.413-3.783 0-5.674-1.92-5.674-5.76V9.611h4.138v14.42c-.028 1.28.185 2.169.641 2.667.454.498 1.236.747 2.346.747 1.622 0 3.926-.924 6.912-2.773V9.611h4.095zM256.613 9.056l-.47 3.882h-1.279c-1.621 0-4.11.796-7.467 2.389V30.43h-4.138V9.611h3.199l.427 3.157c3.1-2.475 6.016-3.712 8.746-3.712h.982zM305.548.993l-5.631 28.201c-.256.825-.811 1.237-1.664 1.237h-4.735c-.911 0-1.466-.427-1.664-1.28L287.587 7.52a98.48 98.48 0 0 1-.598-3.328h-.896l-.64 3.328-4.225 21.631c-.057.37-.249.676-.575.917a1.79 1.79 0 0 1-1.088.363h-4.778c-.883 0-1.423-.412-1.622-1.237L267.534.993h4.522l4.224 22.441c.085.484.256 1.735.512 3.754h.981c.142-1.222.355-2.474.64-3.754L282.638 2.4c.199-.938.739-1.408 1.621-1.408h4.565c.397 0 .746.135 1.045.405.299.271.491.604.576 1.002l4.181 21.076a77.03 77.03 0 0 1 .641 3.711h.981c.057-.398.142-1.009.256-1.834.113-.825.213-1.436.298-1.834L301.027.992h4.521zM311.009 11.573c1.508-1.678 4.067-2.517 7.68-2.517 3.611 0 6.172.839 7.68 2.517 1.507 1.679 2.261 4.508 2.261 8.49s-.754 6.798-2.261 8.447c-1.508 1.65-4.068 2.475-7.68 2.475s-6.172-.825-7.68-2.475c-1.508-1.649-2.261-4.465-2.261-8.447 0-3.981.753-6.811 2.261-8.49zm12.117 2.56c-.797-1.052-2.276-1.579-4.438-1.579s-3.641.526-4.438 1.579c-.796 1.052-1.194 3.029-1.194 5.93 0 2.873.398 4.835 1.194 5.888.797 1.052 2.275 1.578 4.438 1.578 2.161 0 3.641-.526 4.438-1.578.796-1.052 1.194-3.015 1.194-5.888 0-2.901-.398-4.877-1.194-5.93zM347.828 9.056l-.47 3.882h-1.279c-1.621 0-4.11.796-7.467 2.389V30.43h-4.138V9.611h3.199l.427 3.157c3.1-2.475 6.016-3.712 8.746-3.712h.982zM356.317.566v23.849c-.028.882.185 1.543.64 1.984.455.441 1.138.661 2.048.661h1.92l.47 3.2c-.825.37-2.148.555-3.968.555-1.621 0-2.901-.476-3.84-1.429-.938-.953-1.408-2.296-1.408-4.032V.566h4.138zM380.337 30.431l-.342-2.858c-2.674 2.247-5.404 3.371-8.191 3.371-2.56 0-4.416-.917-5.567-2.752-1.152-1.834-1.729-4.586-1.729-8.255 0-3.982.641-6.791 1.92-8.426 1.28-1.635 3.285-2.453 6.016-2.453 2.617 0 5.006.626 7.168 1.877a44.428 44.428 0 0 1-.171-4.096V.566h4.139v29.865h-3.243zm-.897-5.675V13.664c-2.588-.683-4.579-1.024-5.973-1.024-1.764 0-2.986.491-3.669 1.472-.683.981-1.024 2.908-1.024 5.781 0 2.873.334 4.836 1.003 5.888.668 1.053 1.813 1.579 3.435 1.579 1.052 0 1.983-.185 2.794-.555.81-.37 1.955-1.053 3.434-2.049z"/></svg>