<svg opacity=".15" xmlns="http://www.w3.org/2000/svg" xmlns:xlink="http://www.w3.org/1999/xlink" width="512" height="512"><defs><path id="a" d="M12.25 302.027c-1.334-6.016-2.747-14.146-3.22-20.286-.459-5.966-1.302-13.905-1.514-19.884-.212-5.989-.148-13.988.101-19.979.248-5.94.732-13.879 1.706-19.744 1.889-11.37 4.685-26.524 7.822-37.615 1.592-5.631 4.12-13.023 6.188-18.497 2.01-5.321 5.177-12.22 7.396-17.457 2.29-5.406 6.112-12.267 9.01-17.373 2.982-5.253 7.094-12.207 10.668-17.076 6.601-8.991 15.768-20.736 23.199-29.053 4.218-4.72 10.349-10.547 15.01-14.83 3.966-3.643 9.58-8.131 13.725-11.569 5.762-4.778 14.199-10.173 20.405-14.358.077-.052 9.566-6.122 19.742-11.172 4.584-2.275 11.964-5.795 23.078-10.078 10.229-3.942 19.915-6.964 25.568-8.478 2.454-.657 6.561-1.756 13.331-3.159.033-.007 3.451-.711 6.54-1.26a231.705 231.705 0 0 1 7.057-1.158c1.879-.271 7.598-1.096 12.355-1.534 3.622-.333 9.096-.838 15.643-1.045 2.746-.087 6.41-.161 9.158-.149 3.038.013 7.087.157 10.124.234 3.113.079 7.252.469 10.36.67 96.887 8.333 180.979 83.229 202.621 190.875 26.715 132.892-51.854 265.355-175.487 295.881 123.633-30.523 202.202-162.989 175.487-295.879C456.683 90.409 372.588 15.514 275.701 7.181c8.613.979 20.136 2.284 28.599 4.168 5.438 1.21 12.675 2.904 18.032 4.431 5.213 1.486 12.128 3.63 17.175 5.604 5.407 2.116 12.612 4.965 17.894 7.379 5.082 2.323 11.735 5.692 16.625 8.399 18.918 10.474 31.728 20.862 31.852 20.964 4.477 3.68 10.505 8.521 14.798 12.411 4.217 3.82 9.646 9.135 13.549 13.273 9.166 9.709 17.565 20.202 24.192 29.973 3.199 4.717 11.48 16.964 19.426 33.847 2.548 5.417 5.673 12.772 7.782 18.375 2.109 5.6 4.476 13.226 6.268 18.936 2.771 8.814 5.394 20.916 6.654 30.067.823 5.971 1.872 13.946 2.326 19.956.454 6.017.821 14.068.698 20.101-.237 11.669-1.414 27.251-3.324 38.77-2.575 15.521-5.266 24.271-9.333 37.521-1.718 5.593-4.626 12.85-6.905 18.235-2.211 5.229-5.439 12.079-8.051 17.12-2.706 5.229-6.604 12.055-9.706 17.061-2.966 4.782-7.335 10.896-10.51 15.545-3.404 4.984-8.607 11.164-12.545 15.74-3.616 4.207-8.817 9.479-12.614 13.523-4.449 4.738-11.023 10.429-16.016 14.592a246.195 246.195 0 0 1-50.812 32.71c-6.577 3.168-13.093 5.757-15.546 6.731-5.921 2.353-10.889 4.029-15.271 5.513-.063.021-6.537 2.188-13.375 4.026-5.598 1.505-10.105 2.458-13.092 3.09-6.687 1.35-24.445 4.938-48.149 5.139-2.007.02-12.549.053-23.088-.896-7.499-.68-17.457-2.064-24.862-3.43-5.511-1.015-12.85-2.529-18.205-4.182-10.302-3.173-23.896-7.891-33.913-11.87-5.56-2.209-12.676-5.856-17.959-8.668-5.124-2.724-11.861-6.558-16.701-9.758-9.416-6.228-21.343-15.456-30.102-22.577-4.519-3.675-9.872-9.341-14.091-13.354-2.83-2.692-15.938-16.859-24.642-29.563-3.317-4.84-7.663-11.354-10.666-16.396-2.983-5.012-6.489-11.956-9.27-17.081-2.809-5.181-5.632-12.538-7.961-17.949-2.877-6.681-5.756-15.975-7.818-22.948-1.726-5.822-3.478-13.747-4.794-19.682z"/></defs><clipPath id="b"><use xlink:href="#a" overflow="visible"/></clipPath><g fill="#3F3F3F" clip-path="url(#b)"><path d="M246.083 499.857c-.723-.052-.815-.059-2.831-.119a231.281 231.281 0 0 1-57.201-9.014l7.187 1.959c21.072 4.695 21.895 4.882 39.996 6.803 5.603.359 13.08.742 18.692.893a42.135 42.135 0 0 1-3.314-.136c-1.03-.088-1.871-.218-2.529-.386M351.198 480.598c-.263.115-1.152.503-1.64.697-.252.097-.514.193-.773.292l2.583-1.063a8.707 8.707 0 0 0-.17.074M360.281 476.052c-1.742.799-1.986.919-2.475 1.159-1.164.947-3.154 2.004-5.957 3.173.586-.263 1.172-.521 1.758-.782.469-.21.936-.421 1.399-.635a463.32 463.32 0 0 0 8.529-3.949c18.2-9.604 18.55-9.789 35.11-21.059 4.287-3.324 10.118-7.615 14.282-11.095.021-.021.043-.035.064-.056-.566.473-1.134.938-1.703 1.404a233.59 233.59 0 0 1-51.007 31.84"/></g><g><defs><path id="c" d="M233.233 499.486c-4.563-.452-10.658-1.02-15.179-1.785-7.488-1.273-17.441-3.199-24.817-5.018-10.462-2.572-24.133-7.214-34.049-11.428-6.014-2.556-13.9-6.281-19.702-9.287-4.96-2.566-11.398-6.332-16.142-9.279-5.134-3.194-11.777-7.778-16.635-11.382-4.542-3.364-10.274-8.273-14.673-11.827-4.592-3.707-10.177-9.286-14.312-13.497-3.998-4.073-9.112-9.724-12.776-14.1-3.777-4.509-8.577-10.722-11.989-15.513-3.352-4.708-7.39-11.28-10.538-16.127-3.232-4.979-6.839-12.049-9.468-17.369-2.61-5.279-5.592-12.554-7.982-17.938-2.458-5.532-4.929-13.248-6.689-19.045-2.146-7.064-4.808-16.587-6.032-23.871-1.007-5.992-2.476-13.973-3.188-20.01-.71-6.021-1.498-14.095-1.547-20.16-.094-11.732.276-27.435 1.726-39.081 2.555-20.523 7.362-36.5 7.902-38.254 3.35-10.888 8.563-25.215 13.387-35.535 7.991-17.096 16.072-29.196 18.728-33.172 6.869-10.284 14.757-20.302 23.445-29.774 11.14-12.145 20.052-19.524 27.213-25.453 4.321-3.579 10.311-8.094 15.019-11.146 3.904-2.53 9.066-5.977 13.064-8.355 3.985-2.372 9.415-5.339 13.533-7.471 3.377-1.748 7.993-3.859 11.472-5.396 3.441-1.52 8.091-3.403 11.589-4.786 3.308-1.308 7.774-2.912 11.137-4.072a320.039 320.039 0 0 1 10.141-3.27c2.569-.78 6.021-1.741 8.625-2.395a246.719 246.719 0 0 1 9.965-2.274h.001c.652-.12 1.518-.307 2.168-.438a250.201 250.201 0 0 1 23.636-3.5c22.019-2.184 38.425-.867 45.433-.304-22.711-1.954-46.125-.25-69.603 5.547 23.478-5.797 46.892-7.501 69.603-5.547 9.251 1.091 21.604 2.641 30.708 4.612 9.26 2.005 21.557 5.173 30.384 8.614 5.866 2.287 13.721 5.269 19.468 7.838 5.101 2.28 11.757 5.644 16.664 8.314 5.246 2.854 12.069 6.977 17.071 10.241 4.729 3.085 10.972 7.325 15.335 10.909 4.532 3.723 10.653 8.601 15.01 12.529 4.228 3.811 9.656 9.118 13.57 13.247 9.161 9.664 17.582 20.143 24.31 30.019 3.229 4.741 11.532 16.997 19.493 33.864 2.313 4.897 8.992 19.319 14.099 37.307 4.288 15.104 5.767 23.491 8.06 39.965 1.248 8.963 1.879 21.069 1.7 30.117-.23 11.674-1.373 27.262-3.277 38.779-2.674 16.179-6.578 29.495-9.382 37.813-8.188 24.304-19.428 46.219-34.688 67.301-7.18 9.921-15.427 19.605-24.511 28.796-11.524 11.654-21.35 19.183-27.849 24.159-4.36 3.342-10.397 7.512-15.084 10.372-6.822 4.168-16.049 9.553-23.239 13.035-2.812 1.361-10.271 4.979-20.688 8.896-11.721 4.403-19.313 6.562-23.852 7.85-4.677 1.328-13.268 3.379-21.068 4.743-6.389 1.116-9.803 1.562-12.545 1.917-3.926.51-6.473.739-11.096 1.155-3.459.313-6.924.468-10.938.646-2.107.096-4.924.163-7.036.159-3.012-.007-7.029-.008-10.039-.125-3.915-.14-9.143-.374-13.046-.76z"/></defs><clipPath id="d"><use xlink:href="#c" overflow="visible"/></clipPath><g clip-path="url(#d)"><path fill="#A0A0A0" d="M59.25 171.238c-.536 1.527-1.289 2.354-2.303 2.526-7.014.134-13.127-.005-18.192-.441-3.703-.319-6.727-.785-9.094-1.388-.281-.358-.446-.781.192-2.668a254.795 254.795 0 0 1 27.607-53.87c1.018-1.441 1.405-1.687 1.895-1.997 2.042.469 4.461.842 7.425 1.097 4.054.349 8.947.46 14.561.353l.4.161c.187.583.257.8-.324 1.992-9.195 16.866-16.656 35.083-22.167 54.235"/><path fill="#3F3F3F" d="M48.134 246.868c-.134 1.667-.74 2.569-1.851 2.759-8.016.153-15.001-.007-20.79-.504-4.231-.364-7.687-.897-10.392-1.586-.416-.395-.731-.86-.692-2.931a252.463 252.463 0 0 1 10.512-60.65c.565-1.689.909-1.972 1.344-2.329 2.592.604 5.69 1.083 9.485 1.409 5.191.447 11.456.59 18.644.452.783.251 1.356.596 1.039 2.514-4.507 19.598-7.012 40.024-7.299 60.866"/><path fill="#8B8B8B" d="M113.829 241.432c-.072 1.674-.887 2.663-2.493 3.022-20.25 2.416-38.503 4.056-53.891 4.79-1.224-.108-1.873-.968-1.985-2.627.128-20.836 2.396-41.255 6.601-60.842.445-1.561 1.211-2.421 2.344-2.63 13.8-.658 30.169-2.129 48.33-4.295 1.432-.017 2.13.714 2.135 2.234-1.802 19.373-2.188 39.625-1.041 60.348M290.242 210.363c.201 1.645-.645 2.736-2.582 3.335a2094.161 2094.161 0 0 1-74.07 14.983c-1.962.192-3.137-.49-3.59-2.084-3.247-20.398-5.961-40.172-8.123-58.935.004-1.522.841-2.49 2.559-2.958a1880.328 1880.328 0 0 0 66.427-13.438c1.816-.247 2.998.312 3.611 1.708 5.467 18.095 10.769 37.345 15.768 57.389"/><path fill="#3F3F3F" d="M57.863 326.13c.422 2.181-.416 2.462-1.156 2.711-8.228.157-15.399-.007-21.34-.518-4.344-.373-7.891-.921-10.667-1.628-.518-.396-.963-.856-1.582-2.896a251.929 251.929 0 0 1-4.047-17.057 252.6 252.6 0 0 1-4.94-46.208c.024-1.486.146-1.729.472-2.386 3.054.564 6.542 1.104 10.814 1.473 5.844.503 12.896.664 20.989.509 1.142.147 1.759 1.007 1.942 2.698a295.354 295.354 0 0 0 9.515 63.302M125.546 320.529c.229 1.653-.445 2.639-2.061 3.002-20.786 2.479-39.523 4.163-55.319 4.917-1.299-.104-2.201-.948-2.755-2.577a303.03 303.03 0 0 1-3.941-17.051 306.748 306.748 0 0 1-5.689-46.245c.046-1.701.648-2.601 1.895-2.829 15.536-.741 33.964-2.396 54.408-4.836 1.646-.026 2.601.76 2.919 2.404a439.138 439.138 0 0 0 10.543 63.215"/><path fill="#616161" d="M212.204 307.468c.159 1.677-.692 2.738-2.603 3.243-24.527 4.267-48.125 7.904-69.898 10.78-1.765.062-2.898-.692-3.466-2.311a466.664 466.664 0 0 1-3.762-17.064 476.317 476.317 0 0 1-6.944-46.126c.003-1.688.822-2.695 2.502-3.087 21.415-2.828 44.623-6.406 68.746-10.603 1.941-.168 3.107.536 3.564 2.15a1178.385 1178.385 0 0 0 11.861 63.018"/><path fill="#3F3F3F" d="M307.298 288.521c.104 1.695-.813 2.82-2.813 3.438a2142.4 2142.4 0 0 1-76.031 15.381c-2.021.199-3.272-.483-3.822-2.094a1561.268 1561.268 0 0 1-12.05-62.982c-.085-1.706.785-2.747 2.739-3.277a2116.416 2116.416 0 0 0 74.782-15.128c2.063-.283 3.303.331 3.896 1.933 3.521 14.87 6.864 30.11 9.976 45.583a1487.753 1487.753 0 0 1 3.323 17.146M87.365 396.502c.854 1.64.342 1.957-.416 2.201-7.602.146-14.228-.006-19.717-.479-4.014-.345-7.29-.851-9.856-1.504-.462-.271-.985-.584-2.231-2.379-11.18-16.813-20.4-35.282-27.263-55.146-.441-1.4-.405-1.63-.308-2.244 3.024.585 6.555 1.13 10.879 1.502 5.915.509 13.054.672 21.245.515 1.186.14 2.066.968 2.693 2.541 6.457 19.838 14.898 38.255 24.974 54.993"/><path fill="#616161" d="M150.128 391.309c.445 1.282-.094 2.189-1.48 2.489-19.205 2.291-36.517 3.846-51.111 4.542-1.239-.077-2.277-.757-3.172-2.077-9.836-16.747-18.108-35.17-24.476-55.01-.47-1.953.24-2.354 1.218-2.675 15.725-.751 34.378-2.427 55.071-4.896 1.696-.034 2.82.704 3.438 2.267 5.664 19.901 12.587 38.444 20.512 55.36"/><path fill="#3F3F3F" d="M230.486 379.196c.228 1.4-.516 2.305-2.272 2.756-22.662 3.939-44.464 7.304-64.582 9.96-1.655.076-2.829-.529-3.59-1.854-7.586-16.959-14.269-35.529-19.81-55.447-.267-1.604.417-2.573 2.09-2.959 21.676-2.863 45.167-6.484 69.585-10.732 1.976-.176 3.211.496 3.775 2.055 4.654 20.054 9.632 38.89 14.804 56.221"/><path fill="#8B8B8B" d="M318.668 361.627c-.02 1.461-.932 2.442-2.789 3.001a1988.744 1988.744 0 0 1-70.251 14.211c-1.873.198-3.058-.355-3.62-1.702-4.778-17.398-9.479-36.287-13.985-56.368-.16-1.632.706-2.68 2.648-3.2a2145.359 2145.359 0 0 0 75.692-15.313c2.051-.282 3.281.339 3.767 1.903 3.541 20.274 6.388 39.534 8.538 57.468"/><path fill="#A0A0A0" d="M346.773 120.327c.58 1.278.172 2.302-1.123 2.809-11.719 3.271-24.455 6.613-38.123 9.988a1622.743 1622.743 0 0 1-22.857 5.466c-1.768.258-2.945-.269-3.604-1.611-6.108-17.358-12.453-33.442-18.879-47.895-.162-.848-.348-1.81 1.416-2.386a1291.644 1291.644 0 0 0 18.297-4.375c10.938-2.701 21.133-5.377 30.512-7.994.939-.079 2.005-.168 3.326 1.185 11.052 13.279 21.487 28.327 31.035 44.813"/><path fill="#3F3F3F" d="M441.122 168.075c.614 1.725.21 2.273-.301 2.967-13.523 5.211-29.979 10.658-49.327 16.348-1.596.295-2.725-.296-3.449-1.808-7.135-19.503-15.59-37.954-25.086-55.027-.613-1.396-.279-2.339 1.021-2.881 17.353-5.104 32.106-9.988 43.945-14.498.791-.066 1.688-.142 3.051 1.54 11.686 16.352 21.852 34.239 30.146 53.359"/><path fill="#616161" d="M397.715 265.953c.094 1.711-.672 2.855-2.341 3.496-13.747 3.837-28.687 7.758-44.72 11.717a1902.158 1902.158 0 0 1-26.814 6.412c-2.046.3-3.285-.336-3.793-1.943a1050.522 1050.522 0 0 0-3.299-17.152 1061.314 1061.314 0 0 0-10.2-45.529c-.205-1.69.616-2.771 2.586-3.4a1870.554 1870.554 0 0 0 26.372-6.306c15.77-3.894 30.463-7.751 43.982-11.523 1.72-.306 2.879.299 3.547 1.847a444.797 444.797 0 0 1 14.68 62.381"/><path fill="#8B8B8B" d="M462.744 244.953c.168 2.286-.649 2.882-1.37 3.407-13.55 5.162-30.441 10.753-50.303 16.595-1.605.295-2.59-.348-3.014-1.965a412.468 412.468 0 0 0-3.074-17.21 412.48 412.48 0 0 0-11.759-45.131c-.356-1.638.198-2.733 1.7-3.35 19.534-5.746 36.146-11.244 49.477-16.321.995-.074 1.822.019 2.676 1.908a297.347 297.347 0 0 1 12.728 44.813 294.37 294.37 0 0 1 2.939 17.254"/><path fill="#3F3F3F" d="M402.512 340.699c-.216 1.521-1.085 2.545-2.654 3.131-12.703 3.544-26.508 7.167-41.318 10.825a1781.073 1781.073 0 0 1-24.773 5.924c-1.875.288-2.943-.245-3.271-1.628-1.746-18.025-4.307-37.354-7.698-57.661-.065-1.66.86-2.772 2.841-3.399a1855.287 1855.287 0 0 0 26.693-6.383c15.962-3.939 30.835-7.845 44.52-11.664 1.708-.306 2.721.314 3.086 1.898 2.478 20.54 3.295 40.307 2.574 58.957"/><path fill="#616161" d="M462.814 321.227c-.277 1.358-.771 2.238-1.646 2.942-12.854 4.945-28.46 10.11-46.811 15.508-1.37.267-2.19-.364-2.252-1.725 1.051-18.744.465-38.578-1.898-59.153-.028-1.68.713-2.802 2.266-3.43 19.772-5.814 36.588-11.381 50.077-16.52.771-.055 1.646-.111 1.969 2.032 1.724 20.79 1.083 41.028-1.705 60.346"/><path fill="#8B8B8B" d="M430.003 88.278c.963 1.078 1.071 1.338 1.359 2.035-3.971 3.562-11.123 7.362-21.206 11.566-.711.062-1.519.13-2.976-1.463-12.715-15.443-26.905-29.252-42.216-41.129-1.261-1.063-1.188-1.411-1.102-1.852 8.24-3.485 13.97-6.526 17.102-9.123.707.062.999.087 2.598 1.083a253.96 253.96 0 0 1 46.441 38.883"/><path fill="#616161" d="M473.488 151.689c.754 1.685.727 2.171.689 2.786-4.563 3.855-12.738 8.198-24.264 13.002-.744.054-1.587.116-2.608-1.863-8.429-19.066-18.795-36.874-30.729-53.125-1.066-1.636-.739-2.159-.201-2.673 10.334-4.309 17.667-8.204 21.676-11.529.562.102.961.175 2.211 1.604a251.188 251.188 0 0 1 33.226 51.798"/><path fill="#3F3F3F" d="M496.09 228.071c.199 1.886.061 2.417-.123 3.091-4.702 3.962-13.096 8.42-24.924 13.352-.845.047-1.521-.078-1.925-2.096a287.535 287.535 0 0 0-15.765-62.029c-.55-1.767-.188-2.317.271-3.015 11.919-5.03 20.175-9.415 24.688-13.158.479.151.825.26 1.604 2.044a251.126 251.126 0 0 1 13.317 44.512 251.216 251.216 0 0 1 2.857 17.299M493.735 305.572c-.372 1.765-.616 2.258-.927 2.882-4.358 3.661-12.114 7.78-23.045 12.337l-.522.035c-.334-.313-.649-.609-.52-1.951 2.989-19.396 3.774-39.693 2.124-60.508-.048-2.256.686-2.835 1.327-3.347 11.774-4.91 20.13-9.349 24.699-13.137.346.182.596.313.763 2.234 1.338 20.985-.052 41.601-3.899 61.455M132.281 451.031c.893.865.833 1.157.769 1.466l-.412.134c-6.255.119-11.708-.005-16.225-.394-3.303-.284-5.999-.7-8.11-1.237-.548-.252-1.091-.542-2.657-1.755a237.96 237.96 0 0 1-41.613-42.422c-.65-.892-.707-1.021-.977-1.642 2.677.396 5.893.893 9.832 1.229 5.388.464 11.891.612 19.352.469 1.12.109 2.138.776 3.11 2.042 10.882 15.869 23.309 29.991 36.931 42.11M184.165 446.738c.613 1.147.485 1.462-.757 1.854-15.803 1.886-30.049 3.165-42.058 3.738-.822-.104-1.754-.221-3.283-1.499-13.223-12.133-25.308-26.267-35.914-42.143-.976-1.696-.204-1.945.478-2.164 14.324-.687 31.315-2.21 50.164-4.458 1.571-.052 2.735.542 3.56 1.807 8.417 16.072 17.772 30.449 27.81 42.865"/><path fill="#616161" d="M250.594 436.726c.094.771.2 1.643-1.713 2.121-18.648 3.244-36.588 6.013-53.143 8.196-1.389.074-2.493-.363-3.378-1.336-9.473-12.487-18.342-26.925-26.37-43.044-.456-1.235.095-2.127 1.511-2.445 19.744-2.605 41.143-5.907 63.384-9.773 1.808-.175 2.978.371 3.576 1.661 5.263 16.542 10.684 31.512 16.133 44.62"/><path fill="#3F3F3F" d="M323.49 422.201c-.196.837-.42 1.785-2.473 2.39a1637.971 1637.971 0 0 1-57.81 11.694c-1.343.146-2.215-.127-2.917-.924-4.968-13.563-9.825-28.637-14.634-45.264-.203-1.358.555-2.249 2.317-2.714a1946.582 1946.582 0 0 0 68.948-13.946c1.854-.27 2.918.252 3.247 1.588 1.805 17.236 2.908 33.066 3.322 47.176M188.489 486.662c.638.278.638.278 1.19.615-4.401.348-8.171.261-11.295-.011-2.283-.193-4.148-.48-5.608-.854-.572-.179-1.25-.407-2.854-.997a234.618 234.618 0 0 1-52.21-27.229c-.887-.629-.989-.719-1.48-1.146a88.02 88.02 0 0 0 7.805 1.03c4.354.375 9.608.493 15.637.379.746.114 1.591.245 3.219 1.427 14.209 11.086 29.524 20.101 45.596 26.786M224.658 483.669c.239.192.509.538.593.832l-.541.25c-10.928 1.303-20.778 2.188-29.082 2.584-.755-.062-1.51-.165-3.104-.812-15.547-6.703-30.38-15.734-44.16-26.833-.714-.634-.736-.747-.832-1.237l.538-.289c11.574-.553 25.303-1.786 40.535-3.604 1.297-.053 2.39.359 3.343 1.261 10.368 11.4 21.357 20.772 32.71 27.848M270.967 476.688c.24.759.075.979-.984 1.322-12.895 2.243-25.297 4.155-36.746 5.667-.771.005-1.379.008-2.557-.545-10.916-7.353-21.222-16.811-30.985-28.289-.618-.884-.329-1.532.793-1.774 15.955-2.107 33.245-4.773 51.218-7.899 1.471-.15 2.467.237 3.047 1.187 5.454 12.138 10.903 22.345 16.214 30.331M321.784 466.563c-.228.555-.483 1.18-1.921 1.592a1127.77 1127.77 0 0 1-39.973 8.087c-1.188.14-1.604-.156-2.136-.531-4.597-8.348-9.252-18.697-14.002-30.965-.233-1.01.34-1.679 1.763-2.045a1583.067 1583.067 0 0 0 55.713-11.271c1.487-.223 2.289.167 2.439 1.193.065 13.215-.563 24.633-1.883 33.94M251.85 500.314c.62.016 1.241.025 1.861.049-.648.015-1.229.019-1.785.016-5.612-.171-13.092-.51-18.692-.893-20.877-2.455-22.127-2.604-39.996-6.803l-7.187-1.959c-.62-.18-1.24-.358-1.858-.546-.621-.187-1.241-.375-1.86-.566 1.174.275 2.911.546 5.039.729 2.912.25 6.425.33 10.457.253.568.059 1.213.118 3.048.705 16.437 5.488 33.545 8.58 50.973 9.015"/><path fill="#3F3F3F" d="M268.598 498.929c.271.024.627.063.896.102-4.928.668-9.366 1.064-13.109 1.246a66.355 66.355 0 0 1-2.667-.022c-16.808-.458-33.326-3.569-49.217-9.075-.63-.229-.63-.229-1.167-.521 7.849-.618 17.03-1.443 27.215-2.658.697.001 1.488.001 2.827.618 11.523 5.886 23.349 9.414 35.222 10.31"/><path fill="#3F3F3F" d="M290.038 495.697c.063.048.149.109.213.161l-.214.181a403.329 403.329 0 0 1-16.702 2.585c-.583.041-1.112.05-2.094-.028-10.993-1.006-21.984-4.64-32.733-10.631-.544-.345-.546-.42-.551-.729.086-.059.2-.133.286-.188a894.932 894.932 0 0 0 34.499-5.335c.609-.067 1.331-.066 2.074.453 5.402 7.015 10.463 11.563 15.222 13.531M313.566 491.009c-.338.295-.518.416-1.187.618a504.849 504.849 0 0 1-18.021 3.646c-.668.066-.86.021-1.252-.124-3.736-2.15-7.832-6.872-12.16-13.875-.25-.579.086-.979 1.025-1.215a1045.668 1045.668 0 0 0 37.254-7.533c.985-.154 1.447.081 1.414.717-1.662 8.216-4.024 14.242-7.073 17.766M392.8 404.901c-.478 1.251-1.354 2.094-2.681 2.572-10.451 2.917-21.811 5.898-34 8.908a1451.07 1451.07 0 0 1-20.387 4.875c-1.551.244-2.334-.159-2.473-1.271.264-14.266-.265-30.227-1.6-47.564.074-1.428.998-2.396 2.813-2.959 8.164-1.891 16.281-3.83 24.314-5.813 14.539-3.594 28.087-7.146 40.553-10.625 1.525-.282 2.285.26 2.321 1.655-1.486 18.063-4.485 34.917-8.86 50.222M442.649 388.804c-.433.816-1.015 1.751-2.063 2.494-10.591 4.069-23.434 8.32-38.533 12.762-1.095.22-1.577-.304-1.319-1.43 4.923-15.462 8.391-32.45 10.261-50.616.294-1.493 1.141-2.495 2.587-3.063 18.011-5.297 33.328-10.367 45.615-15.048.641-.046 1.363-.102 1.086 1.854-3.864 18.822-9.814 36.629-17.634 53.047M370.102 454.504c-.691.884-1.496 1.479-2.455 1.815a801.028 801.028 0 0 1-23.51 6.156 1008.43 1008.43 0 0 1-14.098 3.371c-1.385.229-1.415-.334-1.441-.825 2.207-9.512 3.652-21.112 4.313-34.492.202-1.122.997-1.856 2.499-2.313a1353.458 1353.458 0 0 0 19.648-4.698c11.748-2.897 22.692-5.771 32.768-8.585 1.205-.229 1.654.205 1.374 1.331-5.065 14.498-11.475 27.358-19.098 38.24M404.852 443.282c-.618.604-1.378 1.302-2.29 1.847-7.342 2.816-16.222 5.756-26.663 8.827l-.438.042a9.52 9.52 0 0 1-.201-.343c.094-.229.234-.53.373-.734 8.348-11.088 15.416-24.139 21.068-38.804.566-1.208 1.429-2.021 2.63-2.479 14.554-4.277 26.93-8.377 36.856-12.156.123-.012.288-.021.411-.029.148.256.288.497-.269 1.594-8.753 15.685-19.319 29.891-31.477 42.235M335.939 485.425c-1.119.563-1.642.737-2.021.868a368.896 368.896 0 0 1-10.598 2.776 524.5 524.5 0 0 1-6.354 1.519c-.075.011-.183.024-.261.034-.021-.07-.057-.163-.076-.233 4.188-3.854 7.539-10.104 10.137-18.53.307-.698.941-1.185 1.947-1.479a903.967 903.967 0 0 0 13.141-3.142 753.331 753.331 0 0 0 21.912-5.74c.172-.034.406-.022.58.009.096.294.115.363-.287.901-8.233 9.853-17.65 17.641-28.12 23.017"/><path fill="#3F3F3F" d="M352.029 480.229c-.197.092-.463.207-.661.298l-2.583 1.063c-3.072 1.144-6.811 2.366-11.146 3.644.237-.188.59-.396.86-.535 11.317-5.619 21.543-13.641 30.526-23.709.799-.83 1.593-1.386 2.432-1.69 9.73-2.862 18.008-5.602 24.646-8.131-.026.444-.026.444-.816 1.161-12.957 11.372-27.449 20.799-43.258 27.899M468.211 375.862c-.868 1.538-1.184 1.964-1.582 2.502-3.604 3.016-9.988 6.402-18.979 10.151a6.88 6.88 0 0 1-.374.023c-.171-.72-.171-.72.261-1.682 8.156-16.556 14.396-34.478 18.49-53.392.354-1.338.849-2.202 1.644-2.889 11.021-4.642 18.63-8.686 22.792-12.135.246.565.246.565-.126 2.093a238.695 238.695 0 0 1-22.126 55.329M422.671 434.261c-1.464 1.363-1.999 1.834-2.201 2.015-2.413 2.001-6.825 4.345-13.043 6.938.063-.496.063-.496.831-1.283 12.604-12.521 23.576-26.888 32.692-42.719.81-1.316 1.548-2.125 2.321-2.546 8.666-3.613 14.813-6.88 18.18-9.669-.129.507-.129.507-.954 1.814a236.477 236.477 0 0 1-37.826 45.45"/><path fill="#3F3F3F" d="M398.65 453.959c-17.24 11.65-17.569 11.873-35.111 21.059-2.548 1.208-5.955 2.802-8.529 3.949 15.787-7.227 30.303-16.63 43.335-27.859 1.501-1.271 2.03-1.565 2.498-1.827 5.739-2.396 9.829-4.563 12.092-6.413-4.283 3.329-9.835 7.986-14.285 11.091"/></g></g></svg>