<svg xmlns="http://www.w3.org/2000/svg" width="512" height="80" viewBox="0 0 512 80"><g fill="#0D47A1"><path d="M58.454 16.187c3.4 3.314 4.4 9.01 4.4 25.242 0 16.318-1 21.927-4.4 25.327-3.4 3.23-7.735 3.91-26.006 3.91-18.537 0-22.872-.68-26.272-3.91-3.4-3.4-4.4-9.094-4.4-25.667 0-15.724 1.066-21.588 4.4-24.902 3.4-3.23 7.668-3.91 26.14-3.91s22.737.68 26.138 3.91zM16.51 30.295c-.933 2.04-1.2 5.185-1.2 12.664 0 7.054.4 9.35 2 10.963 1.734 1.7 4.135 2.04 15.137 2.04 10.736 0 13.136-.34 14.87-2.04 1.534-1.53 2-4.08 2-10.88 0-8.073-.4-11.388-1.534-13.343-1.4-2.464-3-2.72-15.47-2.72-13.068 0-14.468.256-15.802 3.315zM94.333 13.127l13.203 36.802 13.27-36.803h24.405v56.69h-13.335l.333-42.412h-2.267l-16.736 42.41h-11.27L85.2 27.406h-2.4l.333 42.412H69.796v-56.69h24.538zM176.76 13.127l23.27 42.24h1.4l-.333-42.24H214.9v56.69h-23.538l-23.405-42.242h-1.467l.333 42.24H153.02V13.128h23.74zM236.912 13.127v56.69H222.71v-56.69h14.202zM244.78 13.127h30.475c8 0 9.335.085 11.603.425 8.802 1.53 11.27 6.034 11.27 20.823 0 12.324-1.668 17.253-6.802 19.803-3 1.445-6.068 1.785-15.938 1.785h-17.07v13.854h-13.536v-56.69zm30.475 28.642c6.135-.086 6.4-.086 7.535-.85 1.333-.936 1.8-2.55 1.8-6.545s-.533-5.61-2.2-6.46c-.934-.51-1.067-.51-7.135-.594h-16.938v14.45h16.938zM353.41 13.127V26.47h-35.876v8.245h34.074V47.21h-34.074v9.008h36.142v13.6h-49.478v-56.69h49.21zM359.55 13.127h32.073c11.335 0 12.87.085 16.67 1.105 4.4 1.105 7.335 4.334 8.668 9.604 1.002 3.995 1.27 7.65 1.27 16.83 0 14.788-1 20.567-4.27 24.39-3.4 3.91-7.334 4.76-22.337 4.76H359.55v-56.69zm32.206 42.24c12.27 0 13.136-.85 13.136-13.683 0-6.97-.466-10.114-1.8-11.984-1.4-2.04-3.2-2.38-11.47-2.38h-18.737V55.37h18.87zM439.372 13.127v56.69H425.17v-56.69h14.202zM491.65 60.212h-29.406l-3.8 9.604h-15.47l23.537-56.69h21.072l23.272 56.69H495.45l-3.8-9.604zm-13.336-33.91h-2.667l-8.602 21.502h19.87l-8.6-21.503z"/></g></svg>