<?xml version="1.0" encoding="utf-8"?>
<!-- Generator: Adobe Illustrator 16.0.0, SVG Export Plug-In . SVG Version: 6.00 Build 0)  -->
<!DOCTYPE svg PUBLIC "-//W3C//DTD SVG 1.1//EN" "http://www.w3.org/Graphics/SVG/1.1/DTD/svg11.dtd">
<svg version="1.1" xmlns="http://www.w3.org/2000/svg" xmlns:xlink="http://www.w3.org/1999/xlink" x="0px" y="0px" width="512px"
	 height="512px" viewBox="0 0 512 512" enable-background="new 0 0 512 512" xml:space="preserve">
<g id="logo">
	<g id="globe_x5F_source" display="none">
		<g display="inline">
			<g enable-background="new    ">
				<g enable-background="new    ">
					<defs>
						<path id="SVGID_1_" enable-background="new    " d="M12.25,302.027c-1.334-6.016-2.747-14.143-3.22-20.286
							c-0.459-5.965-1.302-13.905-1.514-19.884c-0.212-5.989-0.148-13.988,0.101-19.976c0.248-5.94,0.732-13.879,1.706-19.744
							c1.889-11.37,4.685-26.524,7.822-37.615c1.592-5.631,4.12-13.023,6.188-18.497c2.01-5.321,5.177-12.22,7.396-17.457
							c2.29-5.406,6.112-12.267,9.01-17.373c2.982-5.253,7.094-12.207,10.668-17.076c6.601-8.991,15.768-20.736,23.199-29.053
							c4.218-4.72,10.349-10.547,15.01-14.83c3.966-3.643,9.58-8.131,13.725-11.569c5.762-4.778,14.199-10.173,20.405-14.358
							c0.077-0.052,9.566-6.122,19.742-11.172c4.584-2.275,11.964-5.795,23.078-10.078c10.229-3.942,19.915-6.964,25.568-8.478
							c2.454-0.657,6.561-1.756,13.331-3.159c0.033-0.007,3.451-0.711,6.54-1.26c4.064-0.723,6.762-1.116,7.057-1.158
							c1.879-0.271,7.598-1.096,12.355-1.534c3.622-0.333,9.096-0.838,15.643-1.045c2.746-0.087,6.41-0.161,9.158-0.149
							c3.038,0.013,7.087,0.157,10.124,0.234c3.113,0.079,7.252,0.469,10.36,0.67c96.887,8.333,180.981,83.228,202.621,190.875
							c26.715,132.89-51.854,265.355-175.487,295.882c123.633-30.526,202.202-162.992,175.487-295.882
							C456.683,90.409,372.588,15.514,275.701,7.181c8.614,0.979,20.136,2.284,28.599,4.168c5.438,1.21,12.675,2.904,18.032,4.431
							c5.213,1.486,12.128,3.63,17.175,5.606c5.407,2.116,12.612,4.965,17.894,7.379c5.082,2.323,11.735,5.692,16.624,8.399
							c18.919,10.474,31.726,20.862,31.85,20.964c4.476,3.68,10.505,8.521,14.798,12.411c4.217,3.82,9.643,9.135,13.549,13.273
							c9.166,9.709,17.565,20.202,24.192,29.973c3.199,4.717,11.483,16.964,19.426,33.847c2.548,5.417,5.673,12.772,7.782,18.375
							c2.109,5.6,4.476,13.226,6.268,18.936c2.768,8.814,5.391,20.916,6.654,30.067c0.823,5.971,1.872,13.946,2.326,19.956
							c0.454,6.017,0.821,14.068,0.698,20.101c-0.237,11.671-1.414,27.253-3.324,38.77c-2.575,15.519-5.264,24.271-9.333,37.518
							c-1.718,5.593-4.626,12.85-6.905,18.238c-2.211,5.227-5.442,12.079-8.051,17.12c-2.706,5.229-6.603,12.055-9.706,17.059
							c-2.966,4.784-7.335,10.896-10.51,15.544c-3.404,4.987-8.607,11.164-12.545,15.743c-3.616,4.207-8.817,9.479-12.614,13.523
							c-4.449,4.738-11.023,10.429-16.015,14.592c-15.51,12.935-32.604,23.939-50.81,32.71c-6.577,3.168-13.093,5.757-15.546,6.731
							c-5.921,2.353-10.889,4.031-15.271,5.513c-0.063,0.021-6.537,2.188-13.375,4.026c-5.598,1.505-10.108,2.458-13.093,3.09l0,0
							c-6.686,1.35-24.445,4.938-48.148,5.139c-2.007,0.017-12.549,0.053-23.088-0.896c-7.499-0.677-17.457-2.064-24.862-3.427
							c-5.511-1.015-12.85-2.532-18.205-4.182c-10.302-3.173-23.896-7.891-33.913-11.87c-5.56-2.209-12.676-5.859-17.959-8.668
							c-5.124-2.724-11.861-6.558-16.701-9.758c-9.416-6.226-21.343-15.456-30.102-22.577c-4.519-3.675-9.872-9.341-14.091-13.355
							c-2.83-2.692-15.938-16.859-24.642-29.56c-3.317-4.84-7.663-11.354-10.666-16.396c-2.983-5.009-6.489-11.956-9.27-17.081
							c-2.809-5.178-5.632-12.538-7.961-17.949c-2.877-6.68-5.756-15.974-7.818-22.948C15.318,315.887,13.566,307.962,12.25,302.027
							z"/>
					</defs>
					<clipPath id="SVGID_2_">
						<use xlink:href="#SVGID_1_"  overflow="visible"/>
					</clipPath>
					<g clip-path="url(#SVGID_2_)">
						<g>
							<g>
								<path fill="#0D47A1" d="M246.083,499.857c-0.723-0.049-0.815-0.056-2.831-0.119c-19.618-0.606-38.805-3.689-57.201-9.011
									l7.187,1.959c21.072,4.695,21.895,4.879,39.996,6.8c5.603,0.362,13.08,0.742,18.692,0.893
									c-1.234-0.008-2.344-0.052-3.314-0.136C247.582,500.155,246.741,500.025,246.083,499.857"/>
								<path fill="#0D47A1" d="M351.198,480.598c-0.262,0.115-1.152,0.503-1.639,0.697c-0.253,0.097-0.512,0.193-0.774,0.292
									l2.583-1.063C351.316,480.546,351.249,480.575,351.198,480.598"/>
								<path fill="#0D47A1" d="M360.281,476.052c-1.742,0.799-1.986,0.919-2.474,1.159c-1.165,0.947-3.154,2.004-5.957,3.173
									c0.585-0.263,1.172-0.521,1.757-0.782c0.469-0.21,0.936-0.421,1.402-0.635c2.569-1.162,5.986-2.729,8.529-3.949
									c18.202-9.605,18.55-9.789,35.111-21.059c4.289-3.324,10.12-7.615,14.284-11.095c0.021-0.018,0.043-0.035,0.064-0.053
									c-0.566,0.47-1.134,0.938-1.703,1.404C395.92,456.822,378.826,467.566,360.281,476.052"/>
							</g>
						</g>
					</g>
				</g>
				<g enable-background="new    ">
					<defs>
						<path id="SVGID_3_" enable-background="new    " d="M233.233,499.486c-4.563-0.452-10.658-1.017-15.179-1.785
							c-7.488-1.273-17.441-3.199-24.817-5.015c-10.462-2.575-24.133-7.214-34.049-11.428c-6.014-2.556-13.9-6.281-19.702-9.287
							c-4.96-2.569-11.398-6.332-16.142-9.282c-5.134-3.194-11.777-7.778-16.635-11.379c-4.542-3.367-10.274-8.276-14.673-11.829
							c-4.592-3.708-10.177-9.287-14.312-13.498c-3.998-4.073-9.112-9.721-12.776-14.097c-3.777-4.509-8.577-10.722-11.989-15.513
							c-3.352-4.708-7.39-11.28-10.538-16.127c-3.232-4.978-6.839-12.049-9.468-17.369c-2.61-5.279-5.592-12.554-7.982-17.937
							c-2.458-5.533-4.929-13.249-6.689-19.043c-2.146-7.067-4.808-16.587-6.032-23.871c-1.007-5.994-2.476-13.973-3.188-20.01
							c-0.71-6.023-1.498-14.095-1.547-20.16c-0.094-11.735,0.276-27.435,1.726-39.081c2.555-20.523,7.362-36.5,7.902-38.254
							c3.35-10.888,8.563-25.215,13.387-35.535c7.991-17.096,16.072-29.196,18.728-33.172c6.869-10.284,14.757-20.302,23.445-29.774
							c11.14-12.145,20.052-19.524,27.213-25.453c4.321-3.579,10.311-8.094,15.019-11.146c3.904-2.53,9.066-5.977,13.064-8.355
							c3.985-2.372,9.415-5.339,13.533-7.471c3.377-1.748,7.993-3.859,11.472-5.396c3.441-1.52,8.091-3.403,11.589-4.786
							c3.308-1.308,7.774-2.912,11.137-4.072c3.021-1.042,7.082-2.34,10.141-3.27c2.569-0.78,6.021-1.741,8.625-2.395
							c5.248-1.318,9.926-2.267,9.965-2.274c0.001,0,0.001,0,0.001,0c0.652-0.12,1.518-0.307,2.168-0.438
							c0.163-0.033,4.047-0.814,8.981-1.603c4.872-0.777,9.803-1.416,14.655-1.897c22.019-2.184,38.426-0.867,45.433-0.304
							c-22.711-1.954-46.125-0.25-69.603,5.547c23.478-5.797,46.892-7.501,69.603-5.547c9.251,1.091,21.604,2.641,30.708,4.612
							c9.26,2.005,21.557,5.173,30.384,8.614c5.866,2.287,13.72,5.269,19.468,7.838c5.101,2.28,11.757,5.644,16.664,8.314
							c5.246,2.854,12.069,6.977,17.071,10.241c4.728,3.085,10.972,7.325,15.335,10.909c4.532,3.723,10.653,8.601,15.01,12.529
							c4.225,3.811,9.656,9.118,13.57,13.247c9.161,9.664,17.582,20.143,24.31,30.019c3.229,4.741,11.532,16.997,19.493,33.864
							c2.312,4.897,8.992,19.319,14.099,37.307c4.288,15.104,5.764,23.491,8.057,39.965c1.248,8.963,1.879,21.069,1.7,30.117
							c-0.23,11.673-1.373,27.261-3.277,38.779c-2.674,16.179-6.578,29.495-9.382,37.816c-8.188,24.301-19.428,46.217-34.688,67.299
							c-7.18,9.92-15.427,19.607-24.511,28.795c-11.526,11.657-21.35,19.183-27.849,24.161c-4.36,3.34-10.397,7.51-15.084,10.373
							c-6.822,4.167-16.046,9.55-23.239,13.035c-2.81,1.361-10.272,4.979-20.688,8.894c-11.72,4.405-19.313,6.562-23.851,7.85
							c-4.677,1.328-13.266,3.379-21.07,4.743c-6.387,1.116-9.801,1.561-12.545,1.917c-3.924,0.51-6.471,0.739-11.094,1.155
							c-3.459,0.313-6.924,0.468-10.936,0.647c-2.109,0.095-4.924,0.163-7.035,0.159c-3.012-0.007-7.029-0.008-10.039-0.125
							C242.364,500.106,237.136,499.872,233.233,499.486z"/>
					</defs>
					<clipPath id="SVGID_4_">
						<use xlink:href="#SVGID_3_"  overflow="visible"/>
					</clipPath>
					<g clip-path="url(#SVGID_4_)">
						<g>
							<g>
								<path fill="#66ACFF" d="M59.25,171.238c-0.536,1.527-1.289,2.354-2.303,2.526c-7.014,0.134-13.127-0.005-18.192-0.441
									c-3.703-0.319-6.727-0.785-9.094-1.388c-0.281-0.358-0.446-0.781,0.192-2.668c7.051-19.049,16.341-37.144,27.607-53.87
									c1.018-1.441,1.405-1.687,1.895-1.997c2.042,0.469,4.461,0.842,7.425,1.097c4.054,0.349,8.947,0.46,14.561,0.353
									c0.12,0.048,0.28,0.113,0.4,0.161c0.187,0.583,0.257,0.8-0.324,1.992C72.222,133.869,64.761,152.086,59.25,171.238"/>
								<path fill="#0D47A1" d="M48.134,246.868c-0.134,1.667-0.74,2.569-1.851,2.759c-8.016,0.153-15.001-0.007-20.79-0.504
									c-4.231-0.364-7.687-0.897-10.392-1.586c-0.416-0.395-0.731-0.86-0.692-2.931c1.024-20.791,4.615-41.146,10.512-60.65
									c0.565-1.689,0.909-1.972,1.344-2.329c2.592,0.604,5.69,1.083,9.485,1.409c5.191,0.447,11.456,0.59,18.644,0.452
									c0.783,0.251,1.356,0.596,1.039,2.514C50.926,205.6,48.421,226.026,48.134,246.868"/>
								<path fill="#5296E8" d="M113.829,241.432c-0.072,1.674-0.887,2.663-2.493,3.022c-20.25,2.416-38.503,4.056-53.891,4.79
									c-1.224-0.108-1.873-0.968-1.985-2.627c0.128-20.836,2.396-41.255,6.601-60.842c0.445-1.561,1.211-2.421,2.344-2.63
									c13.8-0.658,30.169-2.129,48.33-4.295c1.432-0.017,2.13,0.714,2.135,2.234C113.068,200.457,112.682,220.709,113.829,241.432
									"/>
								<path fill="#5296E8" d="M290.242,210.363c0.201,1.645-0.644,2.736-2.582,3.335c-24.796,5.487-49.776,10.525-74.07,14.983
									c-1.962,0.192-3.137-0.49-3.59-2.084c-3.247-20.398-5.961-40.172-8.123-58.935c0.004-1.522,0.841-2.49,2.559-2.958
									c21.787-3.999,44.189-8.517,66.427-13.438c1.817-0.247,2.999,0.312,3.612,1.708
									C279.941,171.069,285.243,190.319,290.242,210.363"/>
								<path fill="#0D47A1" d="M57.863,326.13c0.422,2.181-0.416,2.462-1.156,2.711c-8.228,0.157-15.399-0.007-21.34-0.518
									c-4.344-0.373-7.891-0.921-10.667-1.628c-0.518-0.394-0.963-0.856-1.582-2.895c-1.534-5.59-2.885-11.276-4.047-17.057
									c-3.11-15.473-4.723-30.929-4.94-46.208c0.024-1.486,0.146-1.73,0.472-2.384c3.054,0.565,6.542,1.104,10.814,1.471
									c5.844,0.503,12.896,0.664,20.989,0.509c1.142,0.148,1.759,1.006,1.942,2.698c0.621,15.307,2.445,30.776,5.556,46.249
									C55.065,314.859,56.387,320.545,57.863,326.13"/>
								<path fill="#0D47A1" d="M125.546,320.529c0.229,1.656-0.445,2.639-2.061,3.002c-20.786,2.479-39.523,4.163-55.319,4.917
									c-1.299-0.104-2.201-0.948-2.755-2.577c-1.463-5.586-2.779-11.271-3.941-17.051c-3.11-15.473-4.98-30.941-5.689-46.245
									c0.046-1.701,0.648-2.6,1.895-2.829c15.536-0.741,33.964-2.397,54.408-4.836c1.646-0.026,2.601,0.76,2.919,2.404
									c1.408,15.242,3.644,30.678,6.755,46.15C122.919,309.245,124.184,314.935,125.546,320.529"/>
								<path fill="#276ACC" d="M212.204,307.468c0.159,1.677-0.692,2.738-2.603,3.243c-24.527,4.267-48.125,7.904-69.898,10.78
									c-1.765,0.062-2.898-0.692-3.466-2.308c-1.345-5.597-2.6-11.287-3.762-17.067c-3.11-15.473-5.412-30.9-6.944-46.126
									c0.003-1.687,0.822-2.695,2.502-3.087c21.415-2.828,44.623-6.406,68.746-10.603c1.941-0.168,3.107,0.536,3.564,2.15
									c2.415,15.09,5.179,30.446,8.289,45.919C209.795,296.15,210.986,301.852,212.204,307.468"/>
								<path fill="#0D47A1" d="M307.298,288.521c0.105,1.698-0.814,2.823-2.813,3.439c-25.454,5.633-51.096,10.805-76.034,15.381
									c-2.021,0.199-3.272-0.486-3.822-2.094c-1.197-5.62-2.378-11.323-3.54-17.104c-3.11-15.473-5.949-30.815-8.51-45.879
									c-0.085-1.706,0.785-2.747,2.739-3.277c24.526-4.502,49.746-9.588,74.78-15.128c2.064-0.283,3.302,0.331,3.895,1.933
									c3.521,14.87,6.864,30.11,9.975,45.583C305.129,277.155,306.239,282.873,307.298,288.521"/>
								<path fill="#0D47A1" d="M87.365,396.502c0.854,1.64,0.342,1.957-0.416,2.201c-7.602,0.146-14.228-0.006-19.717-0.479
									c-4.014-0.345-7.29-0.851-9.856-1.504c-0.462-0.273-0.985-0.584-2.231-2.379c-11.18-16.813-20.4-35.282-27.263-55.146
									c-0.441-1.4-0.405-1.63-0.308-2.244c3.024,0.585,6.555,1.13,10.879,1.502c5.915,0.509,13.054,0.672,21.245,0.515
									c1.186,0.137,2.066,0.968,2.693,2.541C68.848,361.347,77.289,379.764,87.365,396.502"/>
								<path fill="#276ACC" d="M150.128,391.309c0.445,1.282-0.094,2.189-1.48,2.489c-19.205,2.291-36.517,3.846-51.111,4.542
									c-1.239-0.077-2.277-0.757-3.172-2.077c-9.836-16.747-18.108-35.17-24.476-55.01c-0.47-1.953,0.24-2.354,1.218-2.675
									c15.725-0.751,34.378-2.427,55.071-4.895c1.696-0.037,2.82,0.704,3.438,2.264
									C135.28,355.85,142.203,374.393,150.128,391.309"/>
								<path fill="#0D47A1" d="M230.486,379.196c0.228,1.403-0.516,2.305-2.272,2.756c-22.662,3.942-44.464,7.304-64.582,9.96
									c-1.655,0.076-2.829-0.529-3.59-1.851c-7.586-16.959-14.269-35.532-19.81-55.45c-0.267-1.604,0.417-2.573,2.09-2.959
									c21.676-2.863,45.167-6.484,69.585-10.732c1.976-0.176,3.211,0.496,3.775,2.055
									C220.336,343.029,225.314,361.865,230.486,379.196"/>
								<path fill="#5296E8" d="M318.668,361.627c-0.019,1.461-0.931,2.442-2.789,3.001c-23.518,5.204-47.21,9.982-70.251,14.211
									c-1.873,0.198-3.058-0.358-3.62-1.702c-4.778-17.401-9.479-36.287-13.985-56.368c-0.16-1.632,0.706-2.68,2.648-3.203
									c24.826-4.557,50.354-9.704,75.693-15.313c2.05-0.284,3.281,0.338,3.766,1.903
									C313.671,324.433,316.517,343.693,318.668,361.627"/>
								<path fill="#66ACFF" d="M346.774,120.327c0.58,1.278,0.171,2.302-1.123,2.809c-11.719,3.271-24.455,6.613-38.123,9.988
									c-7.552,1.865-15.183,3.688-22.858,5.466c-1.768,0.258-2.946-0.269-3.604-1.611c-6.108-17.358-12.453-33.442-18.879-47.895
									c-0.161-0.848-0.345-1.81,1.417-2.386c6.144-1.423,12.251-2.882,18.296-4.375c10.939-2.701,21.133-5.377,30.512-7.994
									c0.94-0.079,2.005-0.168,3.326,1.185C326.79,88.793,337.225,103.841,346.774,120.327"/>
								<path fill="#0D47A1" d="M441.122,168.075c0.614,1.725,0.21,2.273-0.301,2.967c-13.523,5.211-29.979,10.658-49.327,16.348
									c-1.596,0.295-2.725-0.296-3.449-1.808c-7.135-19.503-15.59-37.954-25.086-55.027c-0.613-1.396-0.279-2.339,1.022-2.881
									c17.352-5.104,32.108-9.988,43.947-14.498c0.791-0.066,1.688-0.142,3.051,1.54
									C422.662,131.068,432.828,148.955,441.122,168.075"/>
								<path fill="#276ACC" d="M397.715,265.953c0.094,1.711-0.672,2.855-2.341,3.496c-13.747,3.837-28.687,7.758-44.72,11.717
									c-8.859,2.188-17.811,4.327-26.814,6.412c-2.046,0.3-3.286-0.336-3.793-1.943c-1.038-5.653-2.138-11.373-3.299-17.152
									c-3.111-15.473-6.531-30.696-10.2-45.532c-0.205-1.69,0.616-2.771,2.586-3.4c8.855-2.051,17.659-4.154,26.372-6.306
									c15.77-3.894,30.463-7.751,43.983-11.523c1.719-0.306,2.878,0.299,3.546,1.847c4.573,14.606,8.466,29.711,11.576,45.184
									C395.773,254.531,396.807,260.268,397.715,265.953"/>
								<path fill="#5296E8" d="M462.744,244.953c0.168,2.286-0.649,2.882-1.37,3.407c-13.55,5.162-30.441,10.753-50.303,16.595
									c-1.605,0.295-2.59-0.348-3.011-1.965c-0.891-5.69-1.916-11.43-3.077-17.21c-3.11-15.473-7.066-30.559-11.759-45.131
									c-0.356-1.638,0.201-2.733,1.703-3.35c19.534-5.746,36.146-11.244,49.474-16.321c0.996-0.074,1.825,0.019,2.676,1.908
									c5.328,14.362,9.617,29.339,12.728,44.812C460.967,233.479,461.944,239.232,462.744,244.953"/>
								<path fill="#0D47A1" d="M402.512,340.699c-0.216,1.521-1.085,2.545-2.657,3.131c-12.701,3.544-26.505,7.167-41.318,10.825
									c-8.186,2.021-16.456,3.997-24.775,5.924c-1.875,0.288-2.944-0.245-3.271-1.628c-1.746-18.025-4.306-37.352-7.698-57.661
									c-0.067-1.66,0.861-2.772,2.84-3.399c8.964-2.075,17.876-4.205,26.694-6.383c15.962-3.94,30.835-7.845,44.52-11.664
									c1.708-0.306,2.718,0.314,3.086,1.898C402.416,302.282,403.233,322.049,402.512,340.699"/>
								<path fill="#276ACC" d="M462.814,321.227c-0.277,1.358-0.771,2.238-1.646,2.942c-12.854,4.945-28.46,10.11-46.811,15.508
									c-1.37,0.264-2.19-0.364-2.252-1.725c1.051-18.744,0.465-38.578-1.898-59.153c-0.028-1.68,0.713-2.802,2.266-3.43
									c19.772-5.814,36.588-11.381,50.077-16.52c0.771-0.052,1.644-0.11,1.969,2.035
									C466.243,281.671,465.602,301.909,462.814,321.227"/>
								<path fill="#5296E8" d="M430.003,88.278c0.963,1.078,1.071,1.338,1.359,2.035c-3.968,3.562-11.123,7.362-21.206,11.566
									c-0.711,0.062-1.516,0.13-2.973-1.463c-12.715-15.443-26.908-29.252-42.216-41.129c-1.261-1.063-1.189-1.411-1.101-1.852
									c8.242-3.485,13.969-6.526,17.101-9.123c0.707,0.062,0.999,0.087,2.596,1.083C400.479,60.417,416.093,73.471,430.003,88.278
									"/>
								<path fill="#276ACC" d="M473.488,151.689c0.754,1.685,0.727,2.171,0.692,2.786c-4.564,3.855-12.741,8.198-24.264,13.002
									c-0.744,0.054-1.587,0.116-2.608-1.863c-8.429-19.066-18.795-36.874-30.732-53.125c-1.066-1.636-0.739-2.159-0.201-2.673
									c10.334-4.309,17.667-8.204,21.676-11.529c0.559,0.102,0.961,0.175,2.211,1.604
									C453.277,115.568,464.487,132.927,473.488,151.689"/>
								<path fill="#0D47A1" d="M496.09,228.071c0.199,1.886,0.058,2.417-0.123,3.091c-4.702,3.962-13.096,8.42-24.924,13.352
									c-0.845,0.047-1.522-0.078-1.925-2.096c-0.789-5.726-1.763-11.481-2.924-17.262c-3.11-15.473-7.438-30.434-12.841-44.767
									c-0.547-1.767-0.187-2.317,0.271-3.015c11.919-5.03,20.175-9.415,24.688-13.158c0.48,0.151,0.828,0.26,1.604,2.044
									c5.716,14.166,10.207,29.039,13.317,44.512C494.396,216.554,495.346,222.322,496.09,228.071"/>
								<path fill="#0D47A1" d="M493.735,305.572c-0.372,1.765-0.616,2.258-0.924,2.882c-4.361,3.661-12.117,7.78-23.045,12.337
									c-0.157,0.011-0.367,0.024-0.525,0.035c-0.334-0.313-0.649-0.609-0.517-1.951c2.989-19.397,3.774-39.693,2.124-60.508
									c-0.048-2.256,0.683-2.835,1.327-3.347c11.774-4.91,20.13-9.349,24.699-13.137c0.346,0.182,0.596,0.313,0.763,2.234
									C498.972,265.101,497.582,285.718,493.735,305.572"/>
								<path fill="#0D47A1" d="M132.281,451.031c0.893,0.865,0.833,1.157,0.769,1.466c-0.124,0.04-0.289,0.094-0.412,0.134
									c-6.255,0.119-11.708-0.005-16.225-0.394c-3.303-0.284-5.999-0.7-8.11-1.237c-0.548-0.252-1.091-0.542-2.657-1.755
									c-15.463-12.242-29.467-26.47-41.613-42.422c-0.65-0.889-0.707-1.018-0.977-1.639c2.677,0.394,5.893,0.89,9.832,1.229
									c5.388,0.464,11.891,0.612,19.352,0.469c1.12,0.109,2.138,0.776,3.11,2.042C106.232,424.79,118.659,438.912,132.281,451.031
									"/>
								<path fill="#0D47A1" d="M184.165,446.738c0.613,1.15,0.485,1.462-0.757,1.855c-15.803,1.886-30.049,3.165-42.058,3.738
									c-0.822-0.104-1.754-0.221-3.283-1.499c-13.223-12.133-25.308-26.267-35.914-42.143c-0.976-1.696-0.204-1.945,0.478-2.164
									c14.324-0.684,31.315-2.21,50.164-4.458c1.571-0.049,2.735,0.542,3.56,1.807
									C164.772,419.945,174.127,434.322,184.165,446.738"/>
								<path fill="#276ACC" d="M250.594,436.726c0.094,0.769,0.2,1.64-1.713,2.121c-18.648,3.244-36.588,6.01-53.143,8.196
									c-1.389,0.074-2.493-0.363-3.378-1.336c-9.473-12.487-18.342-26.925-26.37-43.044c-0.456-1.235,0.095-2.127,1.511-2.445
									c19.744-2.608,41.143-5.907,63.384-9.776c1.808-0.172,2.978,0.371,3.576,1.661
									C239.724,408.648,245.145,423.618,250.594,436.726"/>
								<path fill="#0D47A1" d="M323.49,422.201c-0.196,0.837-0.419,1.785-2.473,2.39c-19.352,4.282-38.847,8.214-57.807,11.694
									c-1.343,0.149-2.215-0.127-2.917-0.924c-4.968-13.563-9.825-28.634-14.634-45.261c-0.203-1.361,0.555-2.249,2.317-2.714
									c22.614-4.15,45.867-8.84,68.948-13.948c1.856-0.268,2.918,0.251,3.247,1.587
									C321.972,392.261,323.076,408.091,323.49,422.201"/>
								<path fill="#0D47A1" d="M188.489,486.662c0.638,0.278,0.638,0.278,1.19,0.615c-4.401,0.348-8.171,0.261-11.295-0.008
									c-2.283-0.196-4.148-0.483-5.608-0.855c-0.572-0.179-1.25-0.407-2.854-0.997c-18.496-6.848-36.032-16.012-52.21-27.228
									c-0.887-0.627-0.989-0.717-1.48-1.147c2.023,0.355,4.622,0.757,7.805,1.03c4.354,0.375,9.608,0.494,15.637,0.379
									c0.746,0.115,1.591,0.245,3.219,1.427C157.102,470.962,172.417,479.977,188.489,486.662"/>
								<path fill="#0D47A1" d="M224.658,483.669c0.239,0.192,0.509,0.538,0.593,0.832c-0.162,0.075-0.379,0.175-0.541,0.25
									c-10.928,1.303-20.778,2.188-29.082,2.584c-0.755-0.062-1.51-0.165-3.104-0.812c-15.547-6.703-30.38-15.734-44.16-26.833
									c-0.714-0.631-0.736-0.747-0.832-1.237c0.162-0.087,0.376-0.202,0.538-0.289c11.574-0.553,25.303-1.786,40.535-3.603
									c1.297-0.053,2.39,0.359,3.343,1.258C202.316,467.221,213.305,476.593,224.658,483.669"/>
								<path fill="#0D47A1" d="M270.967,476.688c0.24,0.756,0.075,0.978-0.984,1.322c-12.895,2.243-25.3,4.155-36.746,5.667
									c-0.771,0.005-1.379,0.008-2.557-0.545c-10.916-7.353-21.222-16.811-30.985-28.289c-0.618-0.884-0.329-1.532,0.793-1.777
									c15.955-2.107,33.245-4.773,51.218-7.899c1.471-0.15,2.467,0.237,3.047,1.186
									C260.207,458.495,265.656,468.702,270.967,476.688"/>
								<path fill="#0D47A1" d="M321.784,466.563c-0.227,0.552-0.483,1.177-1.92,1.589c-13.382,2.962-26.862,5.681-39.973,8.087
									c-1.187,0.14-1.604-0.156-2.134-0.531c-4.597-8.348-9.252-18.697-14.002-30.965c-0.235-1.01,0.34-1.679,1.76-2.045
									c18.273-3.354,37.062-7.144,55.713-11.271c1.49-0.223,2.289,0.167,2.442,1.193
									C323.733,445.838,323.104,457.256,321.784,466.563"/>
								<path fill="#0D47A1" d="M251.85,500.314c0.62,0.016,1.241,0.028,1.861,0.049c-0.648,0.015-1.229,0.019-1.785,0.016
									c-5.612-0.171-13.092-0.51-18.692-0.893c-20.877-2.455-22.127-2.603-39.996-6.8l-7.187-1.959
									c-0.62-0.18-1.24-0.361-1.858-0.546c-0.621-0.187-1.241-0.375-1.86-0.569c1.174,0.278,2.911,0.546,5.039,0.729
									c2.912,0.25,6.425,0.33,10.457,0.253c0.568,0.056,1.213,0.118,3.048,0.705C217.314,496.787,234.422,499.879,251.85,500.314"
									/>
								<path fill="#0D47A1" d="M268.597,498.929c0.27,0.024,0.628,0.061,0.896,0.099c-4.927,0.668-9.366,1.067-13.109,1.246
									c-0.928,0.016-1.826-0.003-2.667-0.022c-16.808-0.458-33.326-3.569-49.217-9.075c-0.63-0.231-0.63-0.231-1.167-0.524
									c7.849-0.618,17.03-1.443,27.215-2.658c0.697,0.001,1.488,0.001,2.827,0.618
									C244.899,494.505,256.725,498.033,268.597,498.929"/>
								<path fill="#0D47A1" d="M290.038,495.697c0.064,0.048,0.149,0.112,0.213,0.161c-0.063,0.054-0.149,0.126-0.214,0.181
									c-5.951,1.042-11.542,1.904-16.702,2.585c-0.583,0.041-1.113,0.05-2.094-0.028c-10.993-1.006-21.984-4.64-32.733-10.631
									c-0.544-0.345-0.546-0.42-0.551-0.732c0.086-0.056,0.2-0.13,0.286-0.186c10.919-1.462,22.481-3.244,34.499-5.335
									c0.609-0.067,1.331-0.066,2.074,0.453C280.218,489.181,285.28,493.729,290.038,495.697"/>
								<path fill="#0D47A1" d="M313.567,491.009c-0.338,0.295-0.516,0.416-1.185,0.618c-6.032,1.334-12.108,2.56-18.018,3.645
									c-0.668,0.069-0.863,0.023-1.253-0.124c-3.738-2.15-7.831-6.872-12.162-13.875c-0.25-0.579,0.086-0.976,1.027-1.212
									c12.22-2.242,24.783-4.776,37.255-7.536c0.985-0.154,1.447,0.081,1.413,0.717
									C318.976,481.459,316.615,487.485,313.567,491.009"/>
								<path fill="#0D47A1" d="M392.8,404.901c-0.478,1.251-1.354,2.094-2.681,2.575c-10.451,2.917-21.81,5.898-34,8.908
									c-6.734,1.663-13.541,3.289-20.386,4.875c-1.551,0.244-2.335-0.159-2.471-1.271c0.262-14.263-0.265-30.224-1.6-47.564
									c0.077-1.428,0.998-2.396,2.814-2.959c8.165-1.891,16.282-3.83,24.315-5.813c14.539-3.591,28.087-7.146,40.553-10.625
									c1.525-0.282,2.285,0.26,2.321,1.658C400.174,372.742,397.175,389.596,392.8,404.901"/>
								<path fill="#0D47A1" d="M442.649,388.804c-0.43,0.816-1.012,1.751-2.063,2.494c-10.591,4.069-23.434,8.32-38.533,12.762
									c-1.095,0.217-1.577-0.304-1.322-1.43c4.923-15.462,8.391-32.45,10.261-50.616c0.294-1.493,1.141-2.495,2.587-3.063
									c18.011-5.297,33.328-10.367,45.615-15.048c0.641-0.046,1.366-0.099,1.086,1.854
									C456.419,354.579,450.469,372.386,442.649,388.804"/>
								<path fill="#0D47A1" d="M370.102,454.504c-0.694,0.884-1.497,1.478-2.455,1.815c-7.228,2.017-15.081,4.078-23.511,6.159
									c-4.657,1.15-9.363,2.274-14.097,3.371c-1.384,0.226-1.415-0.334-1.442-0.828c2.208-9.509,3.653-21.112,4.314-34.492
									c0.203-1.122,0.997-1.856,2.499-2.313c6.598-1.527,13.157-3.096,19.648-4.698c11.748-2.9,22.695-5.773,32.768-8.585
									c1.205-0.23,1.654,0.205,1.374,1.331C384.135,430.762,377.725,443.622,370.102,454.504"/>
								<path fill="#0D47A1" d="M404.852,443.282c-0.621,0.607-1.378,1.302-2.29,1.847c-7.342,2.816-16.222,5.756-26.663,8.827
									c-0.132,0.013-0.309,0.029-0.44,0.042c-0.061-0.103-0.142-0.24-0.201-0.343c0.092-0.229,0.234-0.53,0.373-0.734
									c8.346-11.088,15.416-24.139,21.068-38.804c0.569-1.208,1.429-2.019,2.63-2.478c14.554-4.28,26.93-8.377,36.858-12.159
									c0.124-0.009,0.289-0.021,0.412-0.029c0.148,0.256,0.288,0.497-0.269,1.594C427.576,416.732,417.01,430.937,404.852,443.282
									"/>
								<path fill="#0D47A1" d="M335.939,485.425c-1.118,0.56-1.639,0.737-2.02,0.868c-3.258,0.908-6.798,1.838-10.597,2.776
									c-2.1,0.518-4.221,1.024-6.354,1.519c-0.078,0.011-0.183,0.024-0.261,0.034c-0.023-0.07-0.054-0.163-0.076-0.233
									c4.185-3.854,7.539-10.106,10.135-18.533c0.306-0.698,0.943-1.182,1.949-1.479c4.412-1.021,8.798-2.069,13.139-3.142
									c7.856-1.939,15.177-3.86,21.912-5.74c0.171-0.034,0.408-0.022,0.58,0.009c0.095,0.294,0.117,0.363-0.287,0.901
									C355.826,472.261,346.409,480.049,335.939,485.425"/>
								<path fill="#0D47A1" d="M352.03,480.229c-0.198,0.089-0.464,0.207-0.662,0.295l-2.583,1.063
									c-3.072,1.142-6.811,2.366-11.146,3.642c0.237-0.189,0.59-0.397,0.86-0.536c11.318-5.619,21.543-13.638,30.527-23.709
									c0.798-0.83,1.592-1.383,2.431-1.69c9.731-2.862,18.008-5.602,24.646-8.131c-0.029,0.444-0.029,0.444-0.819,1.161
									C382.33,463.702,367.838,473.129,352.03,480.229"/>
								<path fill="#0D47A1" d="M468.211,375.862c-0.868,1.538-1.184,1.964-1.582,2.502c-3.606,3.016-9.988,6.405-18.98,10.154
									c-0.112,0.007-0.262,0.017-0.374,0.023c-0.17-0.72-0.17-0.72,0.261-1.682c8.156-16.553,14.396-34.475,18.49-53.389
									c0.357-1.338,0.849-2.202,1.644-2.889c11.019-4.641,18.63-8.684,22.792-12.135c0.246,0.568,0.246,0.568-0.126,2.093
									C485.26,339.978,477.796,358.551,468.211,375.862"/>
								<path fill="#0D47A1" d="M422.671,434.261c-1.464,1.363-1.999,1.834-2.201,2.012c-2.413,2.001-6.825,4.345-13.043,6.938
									c0.062-0.496,0.062-0.496,0.831-1.283c12.603-12.522,23.576-26.888,32.692-42.719c0.81-1.316,1.548-2.125,2.321-2.546
									c8.667-3.613,14.816-6.88,18.18-9.669c-0.129,0.507-0.129,0.507-0.954,1.817
									C449.853,405.455,437.154,420.738,422.671,434.261"/>
								<path fill="#0D47A1" d="M398.65,453.959c-17.24,11.65-17.569,11.873-35.111,21.059c-2.548,1.208-5.955,2.799-8.529,3.949
									c15.787-7.227,30.303-16.63,43.335-27.862c1.501-1.268,2.03-1.565,2.498-1.827c5.739-2.395,9.829-4.56,12.092-6.413
									C408.652,446.197,403.1,450.854,398.65,453.959"/>
							</g>
						</g>
					</g>
				</g>
			</g>
		</g>
	</g>
	<g id="globe_x5F_expanded">
		<g id="row7">
			<path id="row7_x5F__x5F_column7" fill="#5296E8" d="M430.007,88.285c0.963,1.078,1.071,1.338,1.36,2.034
				c-3.968,3.562-11.122,7.362-21.203,11.566c-0.711,0.061-1.517,0.13-2.973-1.463c-12.714-15.442-26.906-29.251-42.214-41.129
				c-1.26-1.063-1.189-1.411-1.1-1.852c8.241-3.485,13.967-6.527,17.098-9.124c0.707,0.062,0.999,0.087,2.596,1.083
				C400.485,60.424,416.099,73.478,430.007,88.285"/>
			<path id="row7_x5F__x5F_column5" fill="#66ACFF" d="M346.785,120.334c0.58,1.278,0.171,2.301-1.123,2.809
				c-11.717,3.27-24.452,6.613-38.119,9.987c-7.552,1.865-15.184,3.688-22.86,5.466c-1.767,0.259-2.945-0.268-3.604-1.611
				c-6.107-17.358-12.452-33.442-18.878-47.895c-0.162-0.848-0.346-1.81,1.417-2.386c6.144-1.423,12.252-2.882,18.297-4.375
				c10.938-2.701,21.131-5.376,30.51-7.994c0.939-0.079,2.005-0.168,3.325,1.185C326.803,88.8,337.236,103.848,346.785,120.334"/>
			<path id="row7_x5F__x5F_column1" fill="#66ACFF" d="M59.261,171.244c-0.536,1.527-1.289,2.353-2.302,2.526
				c-7.015,0.134-13.128-0.005-18.193-0.441c-3.704-0.319-6.728-0.785-9.096-1.388c-0.281-0.357-0.446-0.781,0.192-2.668
				c7.05-19.049,16.34-37.143,27.605-53.869c1.018-1.441,1.405-1.687,1.895-1.997c2.042,0.469,4.462,0.842,7.427,1.097
				c4.054,0.349,8.947,0.46,14.562,0.353c0.12,0.048,0.28,0.112,0.4,0.161c0.188,0.582,0.257,0.8-0.324,1.993
				C72.231,133.875,64.771,152.092,59.261,171.244"/>
		</g>
		<g id="row6">
			<path id="row6_x5F__x5F_column7" fill="#276ACC" d="M473.488,151.696c0.754,1.685,0.728,2.171,0.693,2.786
				c-4.563,3.855-12.739,8.198-24.26,13.002c-0.744,0.054-1.588,0.116-2.608-1.863c-8.429-19.066-18.794-36.874-30.73-53.124
				c-1.066-1.636-0.739-2.16-0.2-2.674c10.332-4.309,17.663-8.204,21.672-11.529c0.559,0.102,0.961,0.175,2.211,1.604
				C453.28,115.575,464.489,132.934,473.488,151.696"/>
			<path id="row6_x5F__x5F_column6" fill="#0D47A1" d="M441.127,168.082c0.614,1.725,0.21,2.273-0.301,2.967
				c-13.522,5.211-29.976,10.657-49.323,16.348c-1.596,0.295-2.725-0.296-3.449-1.808c-7.134-19.502-15.589-37.954-25.084-55.026
				c-0.614-1.396-0.279-2.339,1.022-2.881c17.351-5.104,32.106-9.988,43.943-14.498c0.792-0.067,1.688-0.143,3.052,1.54
				C422.669,131.075,432.834,148.961,441.127,168.082"/>
			<path id="row6_x5F__x5F_column4" fill="#5296E8" d="M290.255,210.368c0.201,1.646-0.644,2.736-2.581,3.335
				c-24.796,5.487-49.775,10.525-74.069,14.983c-1.962,0.191-3.137-0.49-3.59-2.084c-3.246-20.397-5.961-40.171-8.123-58.934
				c0.004-1.522,0.841-2.49,2.559-2.958c21.787-3.998,44.188-8.516,66.426-13.437c1.816-0.248,2.998,0.311,3.612,1.708
				C279.955,171.075,285.256,190.325,290.255,210.368"/>
			<path id="row6_x5F__x5F_column2" fill="#5296E8" d="M113.844,241.436c-0.071,1.674-0.887,2.663-2.493,3.023
				c-20.25,2.415-38.504,4.055-53.893,4.789c-1.224-0.108-1.873-0.968-1.985-2.628c0.128-20.835,2.396-41.253,6.6-60.84
				c0.445-1.561,1.211-2.421,2.344-2.63c13.801-0.659,30.171-2.129,48.332-4.295c1.432-0.017,2.13,0.714,2.135,2.234
				C113.083,200.463,112.697,220.714,113.844,241.436"/>
			<path id="row6_x5F__x5F_column1" fill="#0D47A1" d="M48.146,246.871c-0.134,1.668-0.74,2.57-1.851,2.759
				c-8.016,0.153-15.002-0.006-20.791-0.504c-4.232-0.364-7.688-0.896-10.394-1.586c-0.416-0.394-0.731-0.859-0.693-2.93
				c1.024-20.791,4.615-41.146,10.511-60.649c0.565-1.689,0.909-1.972,1.344-2.33c2.593,0.604,5.692,1.083,9.487,1.409
				c5.191,0.446,11.457,0.589,18.646,0.452c0.783,0.251,1.357,0.596,1.039,2.514C50.938,205.604,48.434,226.031,48.146,246.871"/>
		</g>
		<g id="row5">
			<path id="row5_x5F__x5F_column7" fill="#0D47A1" d="M496.087,228.076c0.199,1.886,0.058,2.417-0.123,3.09
				c-4.701,3.963-13.094,8.421-24.92,13.353c-0.845,0.047-1.522-0.078-1.925-2.097c-0.789-5.726-1.762-11.482-2.924-17.264
				c-3.11-15.472-7.437-30.431-12.838-44.762c-0.547-1.767-0.187-2.318,0.27-3.015c11.919-5.03,20.173-9.415,24.686-13.158
				c0.48,0.151,0.827,0.26,1.603,2.044c5.716,14.165,10.206,29.037,13.315,44.508C494.393,216.557,495.343,222.326,496.087,228.076"
				/>
			<path id="row5_x5F__x5F_column6" fill="#5296E8" d="M462.746,244.958c0.168,2.285-0.649,2.881-1.37,3.406
				c-13.549,5.162-30.438,10.753-50.299,16.595c-1.605,0.296-2.59-0.348-3.011-1.965c-0.891-5.691-1.915-11.432-3.077-17.213
				c-3.11-15.471-7.064-30.555-11.757-45.126c-0.355-1.638,0.201-2.733,1.703-3.35c19.533-5.745,36.145-11.244,49.47-16.321
				c0.996-0.074,1.826,0.02,2.676,1.908c5.328,14.361,9.615,29.336,12.725,44.807C460.968,233.48,461.946,239.236,462.746,244.958"
				/>
			<path id="row5_x5F__x5F_column5" fill="#276ACC" d="M397.721,265.957c0.094,1.711-0.672,2.854-2.34,3.497
				c-13.745,3.836-28.684,7.757-44.715,11.715c-8.859,2.188-17.812,4.327-26.816,6.412c-2.045,0.3-3.285-0.336-3.792-1.943
				c-1.038-5.653-2.138-11.374-3.3-17.155c-3.109-15.471-6.529-30.692-10.198-45.527c-0.205-1.69,0.617-2.771,2.586-3.4
				c8.856-2.051,17.661-4.154,26.375-6.307c15.768-3.893,30.459-7.749,43.978-11.522c1.719-0.305,2.879,0.3,3.546,1.848
				c4.572,14.605,8.464,29.708,11.573,45.179C395.779,254.533,396.813,260.271,397.721,265.957"/>
			<path id="row5_x5F__x5F_column4" fill="#0D47A1" d="M307.309,288.523c0.105,1.698-0.814,2.823-2.813,3.439
				c-25.453,5.633-51.095,10.804-76.032,15.381c-2.021,0.198-3.271-0.486-3.821-2.095c-1.197-5.621-2.378-11.325-3.54-17.105
				c-3.11-15.472-5.949-30.813-8.509-45.875c-0.085-1.705,0.785-2.747,2.738-3.277c24.527-4.501,49.746-9.587,74.779-15.127
				c2.064-0.283,3.302,0.331,3.896,1.933c3.521,14.868,6.861,30.107,9.972,45.579C305.14,277.157,306.25,282.875,307.309,288.523"/>
			<path id="row5_x5F__x5F_column3" fill="#276ACC" d="M212.218,307.47c0.159,1.678-0.692,2.738-2.603,3.243
				c-24.527,4.267-48.125,7.904-69.898,10.78c-1.765,0.062-2.899-0.692-3.466-2.308c-1.345-5.598-2.601-11.289-3.763-17.07
				c-3.11-15.471-5.411-30.897-6.943-46.121c0.003-1.687,0.822-2.695,2.502-3.087c21.415-2.828,44.623-6.405,68.746-10.602
				c1.941-0.168,3.107,0.535,3.564,2.15c2.415,15.088,5.178,30.442,8.288,45.914C209.809,296.15,210.999,301.853,212.218,307.47"/>
			<path id="row5_x5F__x5F_column2" fill="#0D47A1" d="M125.56,320.531c0.23,1.656-0.444,2.639-2.061,3.002
				c-20.787,2.479-39.524,4.162-55.321,4.916c-1.3-0.104-2.201-0.947-2.755-2.576c-1.463-5.587-2.779-11.273-3.941-17.055
				c-3.11-15.471-4.98-30.938-5.688-46.239c0.047-1.701,0.649-2.601,1.895-2.829c15.537-0.742,33.965-2.397,54.41-4.836
				c1.646-0.026,2.601,0.76,2.919,2.404c1.408,15.24,3.644,30.674,6.753,46.146C122.933,309.245,124.197,314.936,125.56,320.531"/>
			<path id="row5_x5F__x5F_column1" fill="#0D47A1" d="M57.875,326.131c0.422,2.181-0.416,2.463-1.156,2.711
				c-8.228,0.157-15.399-0.006-21.342-0.518c-4.344-0.373-7.892-0.92-10.669-1.628c-0.518-0.394-0.963-0.856-1.582-2.895
				c-1.534-5.59-2.886-11.278-4.048-17.06c-3.11-15.471-4.722-30.925-4.939-46.203c0.024-1.485,0.146-1.73,0.473-2.384
				c3.055,0.565,6.543,1.104,10.816,1.472c5.844,0.502,12.897,0.663,20.99,0.509c1.127,0.146,1.762,1.028,1.942,2.698
				c0.621,15.305,2.445,30.773,5.555,46.244C55.077,314.859,56.399,320.545,57.875,326.131"/>
		</g>
		<g id="row4">
			<path id="row4_x5F__x5F_column7" fill="#0D47A1" d="M493.73,305.574c-0.373,1.765-0.616,2.258-0.924,2.882
				c-4.36,3.661-12.114,7.78-23.041,12.337c-0.157,0.01-0.368,0.024-0.525,0.034c-0.334-0.313-0.649-0.608-0.517-1.95
				c2.99-19.397,3.775-39.691,2.126-60.506c-0.048-2.255,0.683-2.835,1.326-3.347c11.773-4.91,20.128-9.348,24.695-13.137
				c0.347,0.183,0.596,0.314,0.763,2.234C498.968,265.104,497.577,285.721,493.73,305.574"/>
			<path id="row4_x5F__x5F_column6" fill="#276ACC" d="M462.813,321.229c-0.277,1.358-0.77,2.238-1.646,2.942
				c-12.854,4.944-28.458,10.11-46.808,15.507c-1.37,0.265-2.19-0.364-2.251-1.724c1.051-18.744,0.466-38.577-1.896-59.151
				c-0.029-1.681,0.712-2.802,2.266-3.43c19.771-5.815,36.585-11.381,50.073-16.52c0.77-0.052,1.643-0.11,1.968,2.035
				C466.243,281.674,465.602,301.911,462.813,321.229"/>
			<path id="row4_x5F__x5F_column5" fill="#0D47A1" d="M402.516,340.701c-0.216,1.52-1.085,2.544-2.657,3.13
				c-12.699,3.544-26.501,7.167-41.313,10.824c-8.186,2.021-16.457,3.998-24.776,5.925c-1.875,0.287-2.945-0.245-3.271-1.629
				c-1.746-18.024-4.305-37.35-7.696-57.658c-0.067-1.66,0.861-2.772,2.841-3.398c8.964-2.076,17.876-4.206,26.695-6.384
				c15.96-3.94,30.831-7.844,44.515-11.663c1.708-0.306,2.717,0.314,3.085,1.897C402.421,302.285,403.237,322.052,402.516,340.701"
				/>
			<path id="row4_x5F__x5F_column4" fill="#5296E8" d="M318.676,361.628c-0.019,1.461-0.931,2.442-2.789,3
				c-23.518,5.204-47.208,9.982-70.249,14.211c-1.873,0.198-3.058-0.358-3.62-1.702c-4.776-17.401-9.476-36.286-13.982-56.366
				c-0.16-1.632,0.707-2.679,2.648-3.203c24.826-4.556,50.353-9.704,75.691-15.312c2.049-0.285,3.281,0.338,3.766,1.903
				C313.681,324.435,316.525,343.695,318.676,361.628"/>
			<path id="row4_x5F__x5F_column3" fill="#0D47A1" d="M230.497,379.196c0.228,1.403-0.517,2.305-2.273,2.755
				c-22.661,3.942-44.463,7.304-64.581,9.96c-1.655,0.076-2.829-0.529-3.59-1.851c-7.585-16.959-14.267-35.531-19.807-55.448
				c-0.267-1.604,0.417-2.572,2.09-2.959c21.676-2.862,45.167-6.483,69.584-10.731c1.976-0.176,3.211,0.496,3.775,2.055
				C220.348,343.03,225.325,361.865,230.497,379.196"/>
			<path id="row4_x5F__x5F_column2" fill="#276ACC" d="M150.139,391.309c0.445,1.281-0.094,2.188-1.48,2.488
				c-19.206,2.291-36.518,3.846-51.113,4.542c-1.239-0.077-2.276-0.757-3.172-2.077c-9.835-16.747-18.106-35.169-24.474-55.008
				c-0.47-1.953,0.24-2.354,1.218-2.675c15.726-0.751,34.379-2.427,55.073-4.895c1.696-0.036,2.82,0.704,3.438,2.264
				C135.293,355.85,142.215,374.393,150.139,391.309"/>
			<path id="row4_x5F__x5F_column1" fill="#0D47A1" d="M87.374,396.501c0.854,1.64,0.342,1.956-0.416,2.2
				c-7.603,0.146-14.228-0.006-19.718-0.478c-4.014-0.346-7.292-0.851-9.858-1.504c-0.462-0.274-0.985-0.585-2.231-2.379
				c-11.179-16.812-20.398-35.281-27.261-55.145c-0.441-1.399-0.405-1.63-0.308-2.244c3.025,0.586,6.557,1.131,10.881,1.502
				c5.916,0.509,13.055,0.672,21.246,0.516c1.185,0.137,2.066,0.968,2.693,2.541C68.859,361.347,77.299,379.763,87.374,396.501"/>
		</g>
		<g id="row3">
			<path id="row3_x5F__x5F_column7" fill="#0D47A1" d="M468.206,375.862c-0.868,1.537-1.184,1.963-1.583,2.502
				c-3.605,3.015-9.985,6.404-18.977,10.153c-0.112,0.007-0.262,0.017-0.374,0.023c-0.17-0.72-0.17-0.72,0.261-1.682
				c8.156-16.552,14.396-34.473,18.49-53.387c0.357-1.338,0.849-2.201,1.644-2.889c11.018-4.641,18.628-8.684,22.788-12.134
				c0.247,0.568,0.247,0.568-0.125,2.092C485.254,339.979,477.79,358.551,468.206,375.862"/>
			<path id="row3_x5F__x5F_column6" fill="#0D47A1" d="M442.648,388.803c-0.431,0.816-1.012,1.751-2.063,2.494
				c-10.591,4.07-23.432,8.32-38.531,12.762c-1.095,0.217-1.577-0.305-1.322-1.43c4.923-15.462,8.392-32.449,10.263-50.614
				c0.294-1.493,1.141-2.495,2.587-3.063c18.01-5.297,33.325-10.367,45.611-15.048c0.641-0.046,1.366-0.098,1.086,1.854
				C456.417,354.579,450.467,372.386,442.648,388.803"/>
			<path id="row3_x5F__x5F_column5" fill="#0D47A1" d="M392.802,404.9c-0.478,1.251-1.354,2.094-2.681,2.575
				c-10.45,2.917-21.808,5.897-33.996,8.907c-6.735,1.663-13.542,3.29-20.388,4.875c-1.55,0.245-2.335-0.158-2.47-1.271
				c0.262-14.263-0.264-30.223-1.598-47.563c0.077-1.428,0.998-2.396,2.814-2.959c8.165-1.891,16.283-3.83,24.316-5.814
				c14.538-3.589,28.084-7.145,40.549-10.623c1.525-0.283,2.285,0.26,2.321,1.657C400.177,372.742,397.178,389.595,392.802,404.9"/>
			<path id="row3_x5F__x5F_column4" fill="#0D47A1" d="M323.495,422.199c-0.196,0.837-0.419,1.785-2.473,2.39
				c-19.352,4.282-38.846,8.215-57.806,11.694c-1.342,0.149-2.214-0.127-2.916-0.924c-4.967-13.563-9.823-28.633-14.632-45.26
				c-0.202-1.361,0.556-2.249,2.318-2.714c22.613-4.15,45.865-8.84,68.946-13.947c1.855-0.268,2.917,0.251,3.246,1.587
				C321.978,392.261,323.082,408.09,323.495,422.199"/>
			<path id="row3_x5F__x5F_column3" fill="#276ACC" d="M250.601,436.723c0.094,0.77,0.2,1.641-1.714,2.122
				c-18.647,3.243-36.588,6.009-53.142,8.195c-1.389,0.074-2.494-0.362-3.378-1.336c-9.472-12.486-18.34-26.924-26.366-43.042
				c-0.456-1.235,0.095-2.127,1.511-2.445c19.745-2.607,41.142-5.906,63.383-9.775c1.808-0.173,2.978,0.37,3.576,1.66
				C239.731,408.647,245.152,423.616,250.601,436.723"/>
			<path id="row3_x5F__x5F_column2" fill="#0D47A1" d="M184.172,446.735c0.612,1.15,0.485,1.463-0.757,1.856
				c-15.804,1.885-30.05,3.164-42.06,3.737c-0.822-0.104-1.754-0.221-3.283-1.499c-13.222-12.133-25.305-26.267-35.91-42.142
				c-0.976-1.696-0.203-1.944,0.478-2.164c14.325-0.684,31.316-2.21,50.166-4.458c1.571-0.048,2.735,0.543,3.56,1.808
				C164.781,419.944,174.135,434.32,184.172,446.735"/>
			<path id="row3_x5F__x5F_column1" fill="#0D47A1" d="M132.286,451.028c0.893,0.865,0.833,1.157,0.769,1.466
				c-0.124,0.04-0.289,0.094-0.412,0.134c-6.255,0.119-11.708-0.005-16.226-0.394c-3.303-0.284-6-0.7-8.112-1.238
				c-0.548-0.252-1.091-0.541-2.657-1.754c-15.462-12.242-29.464-26.47-41.61-42.42c-0.65-0.89-0.706-1.019-0.976-1.64
				c2.678,0.394,5.895,0.89,9.834,1.229c5.389,0.464,11.892,0.612,19.353,0.47c1.12,0.108,2.137,0.776,3.109,2.041
				C106.239,424.787,118.665,438.909,132.286,451.028"/>
		</g>
		<g id="row2">
			<path id="row2_x5F__x5F_column7" fill="#0D47A1" d="M422.667,434.258c-1.455,1.355-1.904,1.75-2.201,2.012
				c-2.412,2.001-6.824,4.345-13.042,6.938c0.063-0.495,0.063-0.495,0.832-1.282c12.603-12.522,23.576-26.888,32.691-42.718
				c0.811-1.315,1.548-2.125,2.322-2.546c8.665-3.613,14.814-6.88,18.177-9.669c-0.13,0.508-0.13,0.508-0.954,1.816
				C449.848,405.453,437.15,420.735,422.667,434.258"/>
			<path id="row2_x5F__x5F_column6" fill="#0D47A1" d="M404.85,443.279c-0.62,0.607-1.378,1.302-2.29,1.847
				c-7.341,2.817-16.221,5.757-26.661,8.827c-0.133,0.013-0.309,0.03-0.441,0.043c-0.06-0.104-0.141-0.24-0.201-0.344
				c0.093-0.229,0.235-0.529,0.374-0.734c8.346-11.088,15.417-24.138,21.069-38.802c0.568-1.209,1.429-2.019,2.63-2.478
				c14.553-4.28,26.929-8.377,36.856-12.159c0.123-0.009,0.288-0.021,0.412-0.029c0.147,0.256,0.287,0.497-0.269,1.594
				C427.574,416.731,417.008,430.935,404.85,443.279"/>
			<path id="row2_x5F__x5F_column5" fill="#0D47A1" d="M370.102,454.502c-0.694,0.884-1.497,1.478-2.455,1.814
				c-7.227,2.017-15.08,4.078-23.508,6.159c-4.658,1.15-9.364,2.274-14.099,3.371c-1.384,0.226-1.415-0.334-1.442-0.828
				c2.209-9.509,3.655-21.111,4.316-34.491c0.203-1.121,0.998-1.856,2.5-2.313c6.599-1.527,13.158-3.096,19.649-4.698
				c11.747-2.9,22.693-5.773,32.765-8.584c1.205-0.23,1.654,0.205,1.374,1.331C384.136,430.76,377.726,443.62,370.102,454.502"/>
			<path id="row2_x5F__x5F_column4" fill="#0D47A1" d="M321.785,466.562c-0.227,0.551-0.482,1.176-1.92,1.589
				c-13.381,2.961-26.861,5.68-39.972,8.086c-1.188,0.14-1.605-0.156-2.134-0.531c-4.596-8.348-9.249-18.696-13.998-30.965
				c-0.235-1.01,0.34-1.678,1.759-2.045c18.273-3.354,37.062-7.143,55.712-11.27c1.49-0.223,2.289,0.167,2.442,1.193
				C323.736,445.835,323.105,457.254,321.785,466.562"/>
			<path id="row2_x5F__x5F_column3" fill="#0D47A1" d="M270.969,476.686c0.24,0.756,0.074,0.978-0.984,1.322
				c-12.895,2.243-25.3,4.155-36.747,5.667c-0.771,0.005-1.379,0.008-2.557-0.545c-10.915-7.353-21.219-16.812-30.98-28.289
				c-0.618-0.884-0.329-1.531,0.793-1.777c15.955-2.107,33.245-4.772,51.217-7.899c1.471-0.149,2.468,0.238,3.047,1.187
				C260.211,458.492,265.659,468.699,270.969,476.686"/>
			<path id="row2_x5F__x5F_column2" fill="#0D47A1" d="M224.66,483.666c0.238,0.191,0.508,0.537,0.592,0.832
				c-0.162,0.075-0.379,0.175-0.541,0.249c-10.928,1.304-20.779,2.188-29.084,2.585c-0.755-0.062-1.51-0.165-3.104-0.812
				c-15.545-6.704-30.376-15.734-44.155-26.833c-0.714-0.631-0.737-0.748-0.832-1.237c0.161-0.087,0.376-0.203,0.538-0.289
				c11.575-0.553,25.305-1.786,40.536-3.603c1.296-0.053,2.39,0.359,3.342,1.258C202.32,467.218,213.308,476.59,224.66,483.666"/>
			<path id="row2_x5F__x5F_column1" fill="#0D47A1" d="M188.489,486.658c0.637,0.278,0.637,0.278,1.19,0.616
				c-4.402,0.347-8.173,0.261-11.297-0.008c-2.284-0.196-4.148-0.484-5.609-0.856c-0.572-0.178-1.25-0.407-2.854-0.997
				c-18.495-6.848-36.03-16.011-52.207-27.227c-0.887-0.627-0.989-0.717-1.479-1.148c2.024,0.356,4.623,0.758,7.807,1.031
				c4.354,0.374,9.609,0.494,15.638,0.379c0.746,0.115,1.591,0.245,3.22,1.427C157.104,470.959,172.417,479.973,188.489,486.658"/>
		</g>
		<g id="row1">
			<path id="row1_x5F__x5F_column7" fill="#0D47A1" d="M398.646,453.957c-17.242,11.651-17.571,11.874-35.111,21.059
				c-2.547,1.207-5.952,2.797-8.525,3.947c15.786-7.227,30.301-16.629,43.333-27.861c1.501-1.267,2.03-1.564,2.498-1.827
				c5.738-2.394,9.826-4.559,12.088-6.411C408.647,446.195,403.096,450.852,398.646,453.957"/>
			<path id="row1_x5F__x5F_column6" fill="#0D47A1" d="M352.029,480.226c-0.198,0.089-0.463,0.206-0.661,0.294l-2.585,1.064
				c-3.072,1.141-6.81,2.365-11.145,3.641c0.238-0.189,0.59-0.397,0.86-0.536c11.319-5.619,21.543-13.638,30.528-23.708
				c0.797-0.831,1.592-1.384,2.43-1.69c9.731-2.862,18.008-5.602,24.646-8.131c-0.03,0.443-0.03,0.443-0.82,1.16
				C382.328,463.699,367.837,473.126,352.029,480.226"/>
			<path id="row1_x5F__x5F_column5" fill="#0D47A1" d="M335.938,485.422c-1.117,0.559-1.639,0.737-2.02,0.868
				c-3.258,0.909-6.798,1.838-10.597,2.776c-2.1,0.518-4.222,1.025-6.355,1.52c-0.078,0.01-0.183,0.023-0.261,0.033
				c-0.022-0.069-0.054-0.163-0.076-0.233c4.186-3.854,7.541-10.106,10.138-18.532c0.306-0.699,0.943-1.183,1.949-1.479
				c4.412-1.021,8.799-2.069,13.14-3.142c7.855-1.939,15.175-3.86,21.91-5.74c0.171-0.034,0.408-0.021,0.579,0.01
				c0.095,0.293,0.117,0.362-0.286,0.9C355.825,472.258,346.408,480.046,335.938,485.422"/>
			<path id="row1_x5F__x5F_column4" fill="#0D47A1" d="M313.566,491.006c-0.339,0.295-0.517,0.416-1.186,0.618
				c-6.032,1.335-12.109,2.561-18.019,3.645c-0.668,0.069-0.864,0.024-1.253-0.124c-3.737-2.15-7.828-6.871-12.158-13.875
				c-0.25-0.579,0.086-0.976,1.027-1.212c12.22-2.242,24.783-4.776,37.255-7.536c0.984-0.154,1.446,0.081,1.413,0.718
				C318.976,481.456,316.614,487.482,313.566,491.006"/>
			<path id="row1_x5F__x5F_column3" fill="#0D47A1" d="M290.035,495.694c0.063,0.049,0.149,0.113,0.213,0.161
				c-0.064,0.055-0.149,0.127-0.214,0.181c-5.951,1.042-11.544,1.904-16.704,2.586c-0.583,0.041-1.112,0.049-2.093-0.028
				c-10.993-1.007-21.982-4.641-32.729-10.632c-0.544-0.346-0.545-0.42-0.55-0.732c0.085-0.056,0.199-0.13,0.285-0.186
				c10.92-1.462,22.482-3.245,34.5-5.335c0.608-0.067,1.331-0.066,2.074,0.453C280.218,489.178,285.278,493.727,290.035,495.694"/>
			<path id="row1_x5F__x5F_column2" fill="#0D47A1" d="M268.592,498.927c0.27,0.024,0.629,0.061,0.896,0.098
				c-4.927,0.669-9.368,1.067-13.111,1.246c-0.927,0.017-1.862-0.003-2.666-0.022c-16.807-0.458-33.323-3.569-49.213-9.075
				c-0.629-0.231-0.629-0.231-1.167-0.524c7.851-0.618,17.031-1.443,27.217-2.658c0.697,0,1.488,0,2.827,0.617
				C244.898,494.502,256.722,498.03,268.592,498.927"/>
			<path id="row1_x5F__x5F_column1" fill="#0D47A1" d="M251.843,500.313c0.62,0.015,1.241,0.027,1.861,0.049
				c-0.648,0.014-1.23,0.019-1.787,0.015c-5.608-0.171-13.084-0.509-18.683-0.892c-20.876-2.455-22.126-2.602-39.995-6.8
				l-7.173-1.954c-0.627-0.182-1.253-0.365-1.878-0.552c-0.621-0.187-1.241-0.376-1.86-0.569c1.174,0.277,2.912,0.546,5.041,0.729
				c2.911,0.251,6.425,0.331,10.457,0.254c0.568,0.055,1.213,0.117,3.048,0.705C217.311,496.784,234.417,499.876,251.843,500.313"/>
		</g>
	</g>
</g>
<g id="Note" opacity="0.3">
	<text transform="matrix(1 0 0 1 14.1387 20.0005)" font-family="'MyriadPro-Regular'" font-size="12">Do not rename layers as they’re specifically named for the site theme build process to find them.</text>
</g>
</svg>
